<svg width="90" height="90" viewBox="0 0 90 90" fill="none" xmlns="http://www.w3.org/2000/svg">
<g id="backpack_3436594" clip-path="url(#clip0_48_7203)">
<g id="Group">
<g id="Group_2">
<path id="Vector" d="M28.1565 35.9081H15.2792V3.17074C15.2792 2.1477 16.2062 1.31836 17.3496 1.31836H26.0859C27.2295 1.31836 28.1565 2.1477 28.1565 3.17074V35.9081Z" fill="#FFE177"/>
<path id="Vector_2" d="M28.0508 1.31836H22.1562C23.2997 1.31836 24.2268 2.1477 24.2268 3.17074V35.9082H30.1214V3.17074C30.1214 2.1477 29.1943 1.31836 28.0508 1.31836Z" fill="#FFD271"/>
<path id="Vector_3" d="M72.7559 35.9081H59.8785V3.17074C59.8785 2.1477 60.8056 1.31836 61.9491 1.31836H70.6855C71.8291 1.31836 72.7561 2.1477 72.7561 3.17074V35.9081H72.7559Z" fill="#FFE177"/>
<path id="Vector_4" d="M72.6503 1.31836H66.7557C67.8993 1.31836 68.8263 2.1477 68.8263 3.17074V35.9082H74.7209V3.17074C74.7207 2.1477 73.7937 1.31836 72.6503 1.31836Z" fill="#FFD271"/>
<path id="Vector_5" d="M77.0603 84.9771H10.9747C9.25936 84.9771 7.86902 83.733 7.86902 82.1987V45.3604C7.86902 27.9482 22.8441 13.6651 41.9009 12.2564C42.9229 12.1808 43.9564 12.3181 44.9999 12.3181C65.5067 12.3181 80.1659 27.0146 80.1659 45.3604V82.1987C80.1659 83.733 78.7756 84.9771 77.0603 84.9771Z" fill="#79B0E2"/>
<path id="Vector_6" d="M44.9999 12.1423C43.956 12.1423 42.9231 12.1829 41.9009 12.2584C60.9574 13.6672 75.933 27.9482 75.933 45.3604V82.1987C75.933 83.7331 74.5425 84.9771 72.8274 84.9771H79.0252C80.7405 84.9771 82.1308 83.7331 82.1308 82.1987V45.3604C82.1308 27.0145 65.5069 12.1423 44.9999 12.1423Z" fill="#3E90D6"/>
<path id="Vector_7" d="M79.4064 65.6314H4.69895C2.9178 65.6314 1.47382 64.3396 1.47382 62.7461C1.47382 61.1527 2.9178 59.8608 4.69895 59.8608H79.4062H83.4483V65.6316H79.4064V65.6314Z" fill="#FFE177"/>
<path id="Vector_8" d="M85.3009 59.8607H79.4063C81.1875 59.8607 82.6314 61.1525 82.6314 62.746C82.6314 64.3394 81.1875 65.6313 79.4063 65.6313H85.3009C87.0821 65.6313 88.526 64.3394 88.526 62.746C88.526 61.1525 87.0821 59.8607 85.3009 59.8607Z" fill="#FFD271"/>
<path id="Vector_9" d="M66.1468 88.6817H23.853C22.1377 88.6817 20.7473 87.4377 20.7473 85.9033V52.7367C20.7473 40.7539 31.6056 31.0397 45.0001 31.0397C58.3944 31.0397 69.2528 40.7537 69.2528 52.7367V85.9033C69.2526 87.4377 67.8621 88.6817 66.1468 88.6817Z" fill="#F26C72"/>
<path id="Vector_10" d="M44.9999 31.0397C43.989 31.0397 42.9928 31.0959 42.0145 31.2033C54.0002 32.5198 63.2819 41.6581 63.2819 52.7365V85.9031C63.2819 87.4377 61.8913 88.6815 60.1762 88.6815H66.147C67.8624 88.6815 69.2527 87.4375 69.2527 85.9031V52.7367C69.2527 40.7539 58.3943 31.0397 44.9999 31.0397Z" fill="#E95059"/>
<path id="Vector_11" d="M52.5409 65.3347H35.2974C32.4387 65.3347 30.1212 63.2614 30.1212 60.704V52.9738C30.1212 52.4623 30.5847 52.0476 31.1564 52.0476H56.6819C57.2536 52.0476 57.7171 52.4623 57.7171 52.9738V60.704C57.7171 63.2614 55.3998 65.3347 52.5409 65.3347Z" fill="#AEE4A4"/>
<path id="Vector_12" d="M58.8432 52.0476H52.9486C53.5204 52.0476 53.9839 52.4623 53.9839 52.9738V60.704C53.9839 63.2614 51.6665 65.3347 48.8076 65.3347H54.7022C57.5609 65.3347 59.8785 63.2614 59.8785 60.704V52.9738C59.8785 52.4623 59.415 52.0476 58.8432 52.0476Z" fill="#8DD5A7"/>
<path id="Vector_13" d="M48.1443 42.255C48.1443 44.6823 47.7132 46.4742 44.9999 46.4742C44.5934 46.4742 44.1984 46.6059 43.8208 46.5226C41.6769 46.0501 40.0872 44.3186 40.0872 42.2548C40.0872 40.1909 41.6771 38.4595 43.8208 37.987C44.1986 37.9037 44.5934 38.0353 44.9999 38.0353C47.7132 38.0357 48.1443 39.8276 48.1443 42.255Z" fill="#FFE177"/>
<path id="Vector_14" d="M44.9999 37.86C44.5934 37.86 44.1988 37.905 43.821 37.9883C45.9647 38.4608 47.5548 40.1914 47.5548 42.2552C47.5548 44.3189 45.9647 46.0495 43.821 46.5221C44.1988 46.6055 44.5934 46.6505 44.9999 46.6505C47.7132 46.6505 49.9127 44.6826 49.9127 42.2554C49.9127 39.8277 47.7132 37.86 44.9999 37.86Z" fill="#FFD271"/>
<path id="Vector_15" d="M57.3133 78.4741C58.73 78.4741 58.1101 77.6224 58.1101 76.355V71.3611H54.748V76.355C54.748 77.1471 55.1966 77.8457 55.879 78.258C56.2884 78.5054 56.782 78.4741 57.3133 78.4741Z" fill="#FFE177"/>
<path id="Vector_16" d="M57.5206 71.3611V76.355C57.5206 77.2418 56.9573 78.0098 56.1344 78.3918C56.4877 78.5558 56.8879 78.6499 57.3133 78.6499C58.73 78.6499 59.8785 77.6224 59.8785 76.355V71.3611H57.5206Z" fill="#FFD271"/>
</g>
<g id="Group_3">
<path id="Vector_17" d="M74.4594 47.3396C75.2733 47.3396 75.9331 46.7495 75.9331 46.0213C75.9331 30.762 62.0564 18.3477 44.9999 18.3477C27.9435 18.3477 14.0668 30.7622 14.0668 46.0213C14.0668 46.7495 14.7266 47.3396 15.5405 47.3396C16.3543 47.3396 17.0141 46.7495 17.0141 46.0213C17.0141 32.2159 29.5687 20.9844 44.9999 20.9844C60.4312 20.9844 72.9858 32.2159 72.9858 46.0213C72.9858 46.7495 73.6456 47.3396 74.4594 47.3396Z" fill="black"/>
<path id="Vector_18" d="M45 47.9686C48.5214 47.9686 51.3864 45.4056 51.3864 42.255C51.3864 39.1047 48.5214 36.5416 45 36.5416C41.4786 36.5416 38.6136 39.1047 38.6136 42.255C38.6136 45.4056 41.4786 47.9686 45 47.9686ZM45 39.1783C46.8963 39.1783 48.4391 40.5586 48.4391 42.255C48.4391 43.9515 46.8963 45.3319 45 45.3319C43.1037 45.3319 41.5609 43.9517 41.5609 42.255C41.5609 40.5584 43.1037 39.1783 45 39.1783Z" fill="black"/>
<path id="Vector_19" d="M61.8081 70.0427H59.8786H54.7481H28.1917C27.3779 70.0427 26.7181 70.6328 26.7181 71.3611C26.7181 72.0893 27.3779 72.6794 28.1917 72.6794H53.2745V76.355C53.2745 78.3473 55.0863 79.9682 57.3134 79.9682C59.5404 79.9682 61.3522 78.3473 61.3522 76.355V72.6794H61.8081C62.6219 72.6794 63.2817 72.0893 63.2817 71.3611C63.2817 70.6328 62.6219 70.0427 61.8081 70.0427ZM58.4049 76.355C58.4049 76.8934 57.9153 77.3315 57.3134 77.3315C56.7114 77.3315 56.2218 76.8934 56.2218 76.355V72.6794H58.4049V76.355Z" fill="black"/>
<path id="Vector_20" d="M35.2976 66.6531H54.7025C58.3693 66.6531 61.3524 63.9842 61.3524 60.704V52.9736C61.3524 51.7359 60.2269 50.7292 58.8436 50.7292H31.1565C29.7732 50.7292 28.6475 51.7361 28.6475 52.9736V60.704C28.6477 63.9842 31.6308 66.6531 35.2976 66.6531ZM31.595 53.366H58.4049V60.704C58.4049 62.5305 56.744 64.0164 54.7023 64.0164H35.2974C33.2557 64.0164 31.5948 62.5305 31.5948 60.704L31.595 53.366Z" fill="black"/>
<path id="Vector_21" d="M36.0643 58.516H53.9356C54.7495 58.516 55.4093 57.9259 55.4093 57.1976C55.4093 56.4694 54.7495 55.8793 53.9356 55.8793H36.0643C35.2505 55.8793 34.5907 56.4694 34.5907 57.1976C34.5907 57.9259 35.2505 58.516 36.0643 58.516Z" fill="black"/>
<path id="Vector_22" d="M85.3008 58.5424H83.6045V45.3603C83.6045 37.768 80.8496 30.7415 76.1903 25.0346C76.1919 25.0103 76.1944 24.9866 76.1944 24.9622V14.83C76.1944 14.1017 75.5346 13.5116 74.7208 13.5116C73.9069 13.5116 73.2471 14.1017 73.2471 14.83V21.8464C69.8923 18.6231 65.8592 15.9732 61.3522 14.0801V3.17074C61.3522 2.87631 61.62 2.63672 61.9491 2.63672H72.6504C72.9795 2.63672 73.2473 2.87631 73.2473 3.17074V9.08438C73.2473 9.81264 73.9071 10.4027 74.721 10.4027C75.5348 10.4027 76.1946 9.81264 76.1946 9.08438V3.17074C76.1944 1.42242 74.6045 0 72.6504 0H61.9491C59.9949 0 58.4049 1.42242 58.4049 3.17074V12.9723C54.2272 11.584 49.7112 10.8237 45 10.8237C40.2888 10.8237 35.7728 11.584 31.5951 12.9721V3.17057C31.5951 1.42242 30.0051 0 28.0508 0H17.3496C15.3953 0 13.8054 1.42242 13.8054 3.17074V25.0397C9.14862 30.7455 6.39525 37.7701 6.39525 45.3603V58.5424H4.69898C2.10791 58.5424 0 60.4281 0 62.746C0 65.0638 2.10791 66.9496 4.69898 66.9496H6.39525V69.8064C6.39525 70.5347 7.05506 71.1248 7.8689 71.1248C8.68275 71.1248 9.34256 70.5347 9.34256 69.8064V66.9496H19.2736V83.6587H10.9748C10.0749 83.6587 9.34256 83.0036 9.34256 82.1985V75.552C9.34256 74.8238 8.68275 74.2337 7.8689 74.2337C7.05506 74.2337 6.39525 74.8238 6.39525 75.552V82.1985C6.39525 84.4576 8.44972 86.2954 10.9748 86.2954H19.2952C19.5166 88.371 21.4758 90 23.8529 90H66.1469C68.524 90 70.4834 88.371 70.7048 86.2954H79.0252C81.5503 86.2954 83.6047 84.4576 83.6047 82.1985V66.9496H85.301C87.8919 66.9496 90 65.0638 90 62.746C89.9998 60.4281 87.8919 58.5424 85.3008 58.5424ZM16.7529 3.17074C16.7529 2.87631 17.0207 2.63672 17.3498 2.63672H28.051C28.3802 2.63672 28.648 2.87631 28.648 3.17074V14.0801C24.141 15.9734 20.1079 18.6231 16.7531 21.8464L16.7529 3.17074ZM4.69918 64.3129C3.73325 64.3129 2.9475 63.61 2.9475 62.746C2.9475 61.882 3.73325 61.1791 4.69918 61.1791H19.2738V64.3129H4.69918ZM67.7791 85.9031C67.7791 86.7081 67.047 87.3633 66.1471 87.3633H23.8529C22.953 87.3633 22.2209 86.7081 22.2209 85.9031V52.7367C22.2209 41.4998 32.4396 32.358 45 32.358C50.4301 32.358 55.6887 34.0956 59.8072 37.2503C63.8818 40.3717 66.6045 44.6827 67.4734 49.3894C67.606 50.1079 68.3648 50.5928 69.1675 50.4752C69.9705 50.3566 70.514 49.6781 70.3814 48.9596C69.3993 43.6417 66.3249 38.7721 61.7242 35.2477C57.0719 31.684 51.1325 29.7214 45 29.7214C30.8144 29.7214 19.2736 40.046 19.2736 52.7368V58.5425H9.34256V45.3603C9.34256 27.7708 25.3383 13.4604 45 13.4604C64.6616 13.4604 80.6574 27.7706 80.6574 45.3603V58.5424H70.7264V54.9204C70.7264 54.1923 70.0666 53.602 69.2528 53.602C68.4389 53.602 67.7791 54.1923 67.7791 54.9204V85.9031ZM80.6574 82.1985C80.6574 83.0036 79.9251 83.6587 79.0252 83.6587H70.7264V66.9496H80.6574V82.1985ZM85.3008 64.3129H70.7262V61.1791H85.3008C86.2665 61.1791 87.0525 61.882 87.0525 62.746C87.0525 63.61 86.2667 64.3129 85.3008 64.3129Z" fill="black"/>
</g>
</g>
</g>
<defs>
<clipPath id="clip0_48_7203">
<rect width="90" height="90" fill="white"/>
</clipPath>
</defs>
</svg>
