<svg width="90" height="90" viewBox="0 0 90 90" fill="none" xmlns="http://www.w3.org/2000/svg">
<g id="boot_1489753" clip-path="url(#clip0_48_7240)">
<g id="Group">
<path id="Vector" d="M85.7391 67.389H63.8795L60.8977 62.0778L51.7065 67.389H3.76566C3.01936 51.2197 5.50418 39.5266 16.1846 39.5266C26.8668 39.5266 43.0121 35.7951 46.7385 33.3085C50.4649 30.8203 50.7125 24.3512 50.7125 24.3512L50.6903 18.8795H84.7486L84.7452 24.3512C84.7452 24.3512 84.6324 36.2237 85.7391 43.5074C87.4776 54.9512 85.7391 67.389 85.7391 67.389Z" fill="#B05A21"/>
<path id="Vector_2" d="M85.7391 43.5074C84.6324 36.2237 84.7452 24.3512 84.7452 24.3512L84.7486 18.8795H79.6252L79.6218 24.3512C79.6218 24.3512 79.5091 36.2237 80.6157 43.5074C82.3543 54.9512 80.6157 67.389 80.6157 67.389H85.7391C85.7391 67.389 87.4776 54.9512 85.7391 43.5074Z" fill="#A1531F"/>
<path id="Vector_3" d="M87.4771 24.352H55.6122C51.1231 24.352 47.484 20.7129 47.484 16.2238V13.4061H87.4771V24.352Z" fill="#FF9800"/>
<path id="Vector_4" d="M87.4771 13.4061H82.3538V24.352H87.4771V13.4061Z" fill="#FB8C00"/>
<path id="Vector_5" d="M53.3215 76.5939H2.64705C1.89255 76.5939 1.28082 75.9821 1.28082 75.2277V67.3893H54.6877V75.2277C54.6877 75.9821 54.0761 76.5939 53.3215 76.5939Z" fill="#C4AC8E"/>
<path id="Vector_6" d="M49.5644 67.3893V76.5939H53.3215C54.076 76.5939 54.6877 75.9821 54.6877 75.2277V67.3893H49.5644Z" fill="#B59F83"/>
<path id="Vector_7" d="M87.3529 76.5939H62.2641C61.5096 76.5939 60.8979 75.9821 60.8979 75.2277V67.3893H88.7192V75.2277C88.7192 75.9821 88.1074 76.5939 87.3529 76.5939Z" fill="#C4AC8E"/>
<path id="Vector_8" d="M83.5958 67.3893V76.5939H87.3529C88.1074 76.5939 88.7192 75.9821 88.7192 75.2277V67.3893H83.5958Z" fill="#B59F83"/>
<path id="Vector_9" d="M62.3135 47.3345L57.9569 51.691C57.4941 52.1555 56.741 52.1555 56.2765 51.691L53.1102 48.5248L37.5541 32.9686L43.5928 26.9299L59.149 42.4861C59.1541 42.4912 59.1592 42.4963 59.1626 42.5015L62.3135 45.6523C62.778 46.1168 62.778 46.87 62.3135 47.3345Z" fill="#FF9800"/>
<path id="Vector_10" d="M62.3135 47.3345L57.9569 51.691C57.4941 52.1555 56.741 52.1555 56.2765 51.691L53.1102 48.5248C53.5747 48.9893 54.3279 48.9893 54.7924 48.5248L59.1489 44.1683C59.6083 43.7089 59.6135 42.966 59.1626 42.5015L62.3135 45.6523C62.778 46.1168 62.778 46.87 62.3135 47.3345Z" fill="#FB8C00"/>
<path id="Vector_11" d="M88.7192 66.1087H87.1852C87.5886 62.4633 88.4229 52.6444 87.0054 43.3149C86.137 37.5997 86.0315 28.8745 86.0238 25.6329H87.4771C88.1846 25.6329 88.7579 25.0596 88.7579 24.3521V13.4061C88.7579 12.6985 88.1846 12.1252 87.4771 12.1252H47.4841C46.7766 12.1252 46.2033 12.6985 46.2033 13.4061V16.2237C46.2033 19.0464 47.4527 21.5828 49.4274 23.3088L49.4317 24.3248C49.4177 24.5996 49.2525 27.3129 48.1227 29.6498L44.4977 26.0249C43.9979 25.525 43.1865 25.5248 42.6865 26.0249L36.6486 32.0627C36.1484 32.5631 36.1484 33.374 36.6486 33.8742L37.9078 35.1333C33.8969 36.1679 29.1848 37.0722 24.8856 37.6205C24.184 37.7098 23.6876 38.3513 23.7771 39.0532C23.8596 39.6997 24.4108 40.1721 25.0461 40.1721C25.1001 40.1721 25.1547 40.1685 25.2097 40.1615C30.2139 39.5232 35.5553 38.4611 39.9998 37.2253C41.6461 38.8716 53.9607 51.1863 55.3708 52.5962C56.3337 53.5587 57.9002 53.5594 58.8634 52.5962L63.2205 48.2395C64.1832 47.2763 64.183 45.7098 63.2203 44.7469C60.591 42.1176 52.6679 34.1945 50.0156 31.5422C51.4645 29.0372 51.8572 26.0583 51.959 24.8945C53.0829 25.3698 54.3176 25.6328 55.6127 25.6328H76.395C77.1025 25.6328 77.6758 25.0595 77.6758 24.3519C77.6758 23.6444 77.1025 23.0711 76.395 23.0711H55.6123C51.8368 23.0711 48.765 19.9993 48.765 16.2236V14.6869H86.1964V23.0713C84.0689 23.0713 85.9218 23.0701 81.7458 23.0713C81.0383 23.0713 80.465 23.6446 80.465 24.3521C80.465 25.0596 81.0383 25.6329 81.7458 25.6329H83.4606C83.465 28.9308 83.567 37.7384 84.4728 43.6999C85.8672 52.8775 84.9696 62.8412 84.6043 66.1082H64.6292L62.0144 61.4509C61.6645 60.8275 60.8726 60.6127 60.2568 60.9689L51.363 66.1082H4.99491C4.576 54.4814 6.05271 47.0637 9.50072 43.4531C11.2006 41.6729 13.3869 40.8076 16.1848 40.8076C17.2745 40.8076 18.4527 40.7692 19.6866 40.6938C20.3926 40.6506 20.93 40.0432 20.8868 39.3372C20.8436 38.631 20.2362 38.0972 19.5302 38.137C18.348 38.2094 17.2224 38.2461 16.1848 38.2461C12.6987 38.2461 9.82657 39.4028 7.64812 41.6842C3.65619 45.8647 1.98973 53.6446 2.43154 66.109H1.28083C0.573472 66.109 0 66.6823 0 67.3899V75.2277C0 76.6874 1.18742 77.8748 2.64706 77.8748H53.3217C54.7813 77.8748 55.9687 76.6874 55.9687 75.2277V67.3895C55.9687 67.0799 55.8589 66.7959 55.676 66.5746L60.4158 63.8358L61.6918 66.1089H60.8979C60.1904 66.1089 59.6171 66.6822 59.6171 67.3897V75.2277C59.6171 76.6874 60.8045 77.8748 62.2641 77.8748H79.0702C79.7777 77.8748 80.351 77.3015 80.351 76.5939C80.351 75.8864 79.7777 75.3131 79.0702 75.3131H62.2641C62.2172 75.3131 62.1787 75.2747 62.1787 75.2277V68.6703H87.4383V75.2277C87.4383 75.2747 87.3999 75.3131 87.3529 75.3131H84.5351C83.8276 75.3131 83.2543 75.8864 83.2543 76.5939C83.2543 77.3015 83.8276 77.8748 84.5351 77.8748H87.3529C88.8126 77.8748 90 76.6874 90 75.2277V67.3895C90 66.682 89.4267 66.1087 88.7192 66.1087ZM49.6038 43.2067L43.899 37.5018C43.1698 36.7634 44.4009 36.0311 44.5787 35.7666L46.6919 37.8798C47.1925 38.38 48.0031 38.3798 48.5033 37.8798C49.0036 37.3794 49.0036 36.5685 48.5033 36.0683L46.3901 33.9553C46.9525 33.4587 47.1055 33.059 47.5975 33.059C47.79 33.059 47.9823 33.1323 48.1285 33.2787L53.8289 38.9791C54.1218 39.2718 54.1218 39.7484 53.8289 40.0411L50.6645 43.2055C50.3735 43.497 49.8991 43.5007 49.6038 43.2067ZM43.5919 28.7419L45.8469 30.9969C45.352 31.305 45.1438 31.6011 44.5785 32.1438L44.1558 31.7212C43.6556 31.2211 42.8446 31.2211 42.3446 31.7212C41.8444 32.2215 41.8444 33.0324 42.3446 33.5326L42.7671 33.9553C42.2238 34.5211 41.9284 34.7287 41.6203 35.2235C40.8159 34.4191 40.2329 33.8363 39.3652 32.9684L43.5919 28.7419ZM57.117 50.7197L51.8851 45.4877C52.0969 45.3554 52.2951 45.1979 52.4762 45.0169L55.6405 41.8526C55.8231 41.67 55.9798 41.4712 56.1108 41.2607L61.3435 46.4931L57.117 50.7197ZM53.4071 75.2277C53.4071 75.2747 53.3686 75.3131 53.3217 75.3131H2.64706C2.59992 75.3131 2.56167 75.2747 2.56167 75.2277V68.6703H53.4071V75.2277Z" fill="black"/>
</g>
</g>
<defs>
<clipPath id="clip0_48_7240">
<rect width="90" height="90" fill="white"/>
</clipPath>
</defs>
</svg>
