<svg width="90" height="90" viewBox="0 0 90 90" fill="none" xmlns="http://www.w3.org/2000/svg">
<g id="clothes_959007">
<path id="Vector" d="M23.7946 5.9458L7.45739 23.0249C7.20971 23.2838 7.21305 23.693 7.46494 23.9479L19.3597 35.9831C19.6181 36.2445 20.0403 36.2453 20.2998 35.9848L25.47 30.7921L25.6073 30.7974L29.8113 30.7508V5.9458H23.7946Z" fill="#38559A"/>
<path id="Vector_2" d="M16.399 27.6731C14.097 25.344 14.0666 21.6061 16.3303 19.2397L29.047 5.94556H23.7946L7.45739 23.0246C7.20971 23.2835 7.21305 23.6927 7.46494 23.9476L19.3597 35.9828C19.6181 36.2442 20.0403 36.2451 20.2998 35.9846L22.4647 33.8102L16.399 27.6731Z" fill="#2C518C"/>
<path id="Vector_3" d="M82.5433 23.0247L66.2061 5.9458H63.5177V30.8056L64.3938 30.7974L64.5311 30.7921L69.7013 35.9848C69.9608 36.2453 70.383 36.2446 70.6414 35.9831L82.5361 23.9479C82.7877 23.6928 82.791 23.2838 82.5433 23.0247Z" fill="#38559A"/>
<path id="Vector_4" d="M64.3939 30.7972C64.3728 30.2675 64.3569 29.7379 64.3446 29.2083C64.3007 27.4999 64.2954 25.7983 64.3288 24.1057C64.452 17.9544 65.0819 11.9034 66.2062 5.9458L55.3499 1.33577C55.2162 1.27952 55.0701 1.37796 55.0701 1.52227C55.0701 4.30225 53.9423 6.82013 52.1194 8.64122C50.2983 10.4623 47.7805 11.5901 45.0005 11.5901C39.4404 11.5901 34.9307 7.08222 34.9307 1.5221C34.9307 1.40591 34.8356 1.31977 34.7301 1.31977C34.7038 1.31977 34.6774 1.32505 34.651 1.33559L23.7948 5.94562C24.9191 11.9034 25.5491 17.9543 25.6721 24.1056C25.7055 25.7981 25.7003 27.4997 25.6563 29.2081C25.644 29.736 25.6282 30.2656 25.6071 30.797C25.5614 31.9935 25.4944 33.1952 25.41 34.3988C25.1232 38.4985 24.6164 42.6388 23.8897 46.8242C23.8409 47.1054 24.0562 47.3629 24.3415 47.3629H65.6595C65.945 47.3629 66.1603 47.1054 66.1112 46.8242C65.3844 42.6388 64.8776 38.4987 64.5909 34.3988C64.5064 33.1955 64.4396 31.9937 64.3939 30.7972Z" fill="#F7F0D5"/>
<path id="Vector_5" d="M65.4292 42.4367H35.6329C32.1665 42.4367 29.5033 39.3929 29.9329 35.9532C30.2039 33.7814 30.4149 31.6214 30.5652 29.4725C30.6495 28.269 30.7165 27.0673 30.7622 25.8708C30.7833 25.3394 30.7991 24.8098 30.8114 24.2819C30.8554 22.5735 30.8607 20.8719 30.8273 19.1793C30.7216 13.9026 30.2419 8.69979 29.3982 3.56628L23.7944 5.94583C24.9187 11.9036 25.5487 17.9545 25.6718 24.1058C25.7052 25.7983 25.6999 27.4999 25.656 29.2083C25.6436 29.7362 25.6278 30.2658 25.6067 30.7972C25.561 31.9937 25.4941 33.1954 25.4097 34.399C25.1228 38.4987 24.6162 42.639 23.8894 46.8244C23.8405 47.1056 24.0558 47.3633 24.3411 47.3633H65.6595C65.9451 47.3633 66.1603 47.1056 66.1112 46.8242C65.8563 45.3561 65.6301 43.8939 65.4292 42.4367Z" fill="#EFE0AF"/>
<path id="Vector_6" d="M64.3444 29.2085C64.3567 29.7381 64.3725 30.2678 64.3936 30.7974C64.4393 31.9939 64.5063 33.1956 64.5907 34.3991H25.4098C25.4942 33.1956 25.5611 31.9939 25.6068 30.7974C25.6279 30.266 25.6438 29.7364 25.6561 29.2085H25.6578H31.9798H37.4343H64.3426H64.3444Z" fill="#BEFC44"/>
<path id="Vector_7" d="M30.5651 29.4725C30.5712 29.3845 30.5756 29.2964 30.5816 29.2085H25.6578H25.6561C25.6438 29.7364 25.6279 30.266 25.6068 30.7974C25.5611 31.9939 25.4942 33.1956 25.4098 34.3991H30.1163C30.3007 32.7503 30.4507 31.1082 30.5651 29.4725Z" fill="#CAEF2E"/>
<path id="Vector_8" d="M64.3445 29.2084H64.3427H37.4343H31.9798H25.6579H25.6561C25.7001 27.5 25.7053 25.7984 25.6719 24.1058H64.3286C64.2952 25.7984 64.3005 27.4998 64.3445 29.2084Z" fill="#FE5D5C"/>
<path id="Vector_9" d="M25.6561 29.2084H25.6579H30.5817C30.6574 28.0932 30.7198 26.9797 30.7622 25.8709C30.7833 25.3395 30.7991 24.8098 30.8114 24.282C30.813 24.2233 30.8135 24.1645 30.8149 24.1058H25.6719C25.7055 25.7984 25.7002 27.4998 25.6561 29.2084Z" fill="#FC4C4C"/>
<path id="Vector_10" d="M67.8442 70.0291L66.7128 58.5923L66.2061 57.554H24.1498L23.2877 58.6011L22.1564 70.0291L20.374 88.0379C20.3406 88.3828 20.6115 88.6802 20.9564 88.6802H41.1364C41.4055 88.6802 41.6379 88.499 41.7029 88.2386L44.6987 76.3351C44.7316 76.2045 44.9172 76.2045 44.9501 76.3351L47.9459 88.2386C48.011 88.499 48.2434 88.6802 48.5125 88.6802H69.0444C69.3893 88.6802 69.6602 88.3828 69.6268 88.0379L67.8442 70.0291Z" fill="#38559A"/>
<path id="Vector_11" d="M26.1804 88.0379L27.9628 70.0291L29.0941 58.6011L29.9562 57.554H24.1498L23.2877 58.6011L22.1564 70.0291L20.374 88.0379C20.3406 88.3828 20.6115 88.6802 20.9564 88.6802H26.7628C26.4181 88.6802 26.147 88.3828 26.1804 88.0379Z" fill="#2C518C"/>
<g id="Group">
<path id="Vector_12" d="M66.7129 58.5924L67.8443 70.0292C63.6689 70.0292 60.2836 66.6439 60.2836 62.4686V58.6012V58.5924H66.7129Z" fill="#1A3258"/>
<path id="Vector_13" d="M47.4637 59.4722V69.7249C47.4637 70.9621 46.4608 71.9647 45.2239 71.9647H42.9835C42.7371 71.9647 42.5372 71.7649 42.5372 71.5184V64.7509V59.4723H47.4637V59.4722Z" fill="#1A3258"/>
<path id="Vector_14" d="M29.7172 62.4687C29.7172 66.644 26.3318 70.0294 22.1565 70.0294L23.2878 58.6013H29.7172V62.4687Z" fill="#1A3258"/>
</g>
<path id="Vector_15" d="M66.2648 54.067C66.2314 53.7293 65.9473 53.4722 65.6081 53.4722H24.3922C24.0529 53.4722 23.7691 53.7293 23.7355 54.067L23.2876 58.6011L66.7125 58.5923L66.2648 54.067Z" fill="#BC711D"/>
<path id="Vector_16" d="M27.2909 53.4722H24.3925C24.0532 53.4722 23.7693 53.7293 23.7357 54.067L23.2878 58.6011L66.7128 58.5923L66.4591 56.0287L29.6145 56.0361C28.2345 56.0365 27.1554 54.8455 27.2909 53.4722Z" fill="#B56312"/>
<path id="Vector_17" d="M50.8068 53.532V58.5501C50.8068 58.5642 50.8068 58.5783 50.8051 58.5923C50.784 59.0815 50.3793 59.4721 49.8849 59.4721H47.4638H42.5372H40.1162C39.6252 59.4721 39.2223 59.0868 39.1977 58.6011C39.1942 58.5853 39.1942 58.5677 39.1942 58.5501V53.532C39.1942 53.5109 39.1942 53.4915 39.1977 53.4722C39.2276 52.9918 39.6287 52.61 40.1162 52.61H49.885C50.3725 52.61 50.7736 52.9918 50.8035 53.4722C50.8068 53.4915 50.8068 53.5109 50.8068 53.532Z" fill="#FEB93A"/>
<path id="Vector_18" d="M46.6441 57.1947H44.2231C43.7322 57.1947 43.3293 56.8094 43.3047 56.3237C43.3011 56.3079 43.3011 56.2903 43.3011 56.2727V52.61H40.1158C39.6284 52.61 39.2272 52.9918 39.1974 53.4722C39.1938 53.4915 39.1938 53.5109 39.1938 53.532V58.5501C39.1938 58.5677 39.1938 58.5853 39.1974 58.6011C39.222 59.0868 39.6249 59.4721 40.1158 59.4721H42.5369H47.4635H49.8845C50.379 59.4721 50.7836 59.0815 50.8047 58.5923C50.8065 58.5783 50.8065 58.5642 50.8065 58.5501V57.1947H46.6441Z" fill="#FCAC2B"/>
<path id="Vector_19" d="M83.9398 22.5791L67.169 5.04427L67.1689 5.04479C67.046 4.91349 66.8955 4.80573 66.7219 4.7319L55.8662 0.122049C55.3949 -0.0785168 54.8584 -0.0294739 54.4316 0.253182C54.0045 0.535838 53.7494 1.01009 53.7494 1.52232C53.7494 6.34663 49.8244 10.2715 45.0001 10.2715C40.1758 10.2715 36.2508 6.34645 36.2508 1.52232C36.2508 1.01009 35.9959 0.535838 35.5686 0.253358C35.1416 -0.0291224 34.6053 -0.078341 34.1344 0.121873L23.2783 4.73208C23.0932 4.81065 22.9345 4.92808 22.8076 5.07116L22.807 5.07081L6.05881 22.5789C5.56504 23.0952 5.57155 23.9105 6.07375 24.4187L18.8889 37.3864C19.136 37.6365 19.4732 37.7777 19.8249 37.7784H19.8274C20.1784 37.7784 20.5149 37.6386 20.7625 37.3899L24.1071 34.0307C23.8136 38.3681 23.276 42.7451 22.4947 47.1311C22.4263 47.5156 22.5314 47.9106 22.7823 48.2099C23.0331 48.5093 23.4033 48.6822 23.7941 48.6822H66.2058C66.5962 48.6822 66.9667 48.5093 67.2176 48.2099C67.4682 47.9106 67.5735 47.5156 67.5051 47.1311C66.7231 42.7405 66.1868 38.3704 65.8955 34.0334L69.2375 37.3899C69.4851 37.6386 69.8216 37.7784 70.1726 37.7784H70.1751C70.527 37.7777 70.864 37.6365 71.1111 37.3864L83.9262 24.4187C84.4284 23.9103 84.4351 23.0949 83.9398 22.5791ZM25.3601 46.0427C25.9314 42.5895 26.3525 39.1437 26.6275 35.7187H51.2614C51.9902 35.7187 52.581 35.1279 52.581 34.3992C52.581 33.6704 51.9902 33.0796 51.2614 33.0796H26.8106C26.8602 32.2276 26.9022 31.377 26.9331 30.5283H63.0737C63.1041 31.3775 63.1438 32.2277 63.1931 33.0796H56.5401C55.8113 33.0796 55.2205 33.6704 55.2205 34.3992C55.2205 35.1279 55.8113 35.7187 56.5401 35.7187H63.3743C63.6476 39.1435 64.069 42.5865 64.6406 46.0427H25.3601ZM27.0054 25.4255H63.0023C62.9958 26.2454 62.9979 27.0665 63.0088 27.8889H26.9977C27.0089 27.0657 27.0117 26.2445 27.0054 25.4255ZM63.0535 22.7862H26.956C26.9402 22.2803 26.921 21.7753 26.8983 21.2715C26.8656 20.5434 26.2465 19.9818 25.5206 20.0124C24.7925 20.0451 24.2289 20.6619 24.2615 21.3901C24.3906 24.2613 24.403 27.1654 24.3047 30.0916L19.8311 34.5848L8.85285 23.4761L22.9464 8.74164C23.3502 11.2054 23.6707 13.6955 23.902 16.1747C23.9697 16.9003 24.6134 17.4333 25.3385 17.3662C26.0643 17.2985 26.5976 16.6553 26.5299 15.9297C26.2437 12.8632 25.825 9.77945 25.2829 6.74776L33.7287 3.1613C34.5257 8.66711 39.2765 12.9108 44.9996 12.9108C50.7226 12.9108 55.4735 8.66729 56.2705 3.1613L64.7162 6.74794C63.7759 12.0122 63.2224 17.3662 63.0535 22.7862ZM70.1691 34.5844L65.6986 30.0945C65.4601 22.8561 65.9117 15.7198 67.0536 8.74164L81.147 23.4758L70.1691 34.5844Z" fill="black"/>
<path id="Vector_20" d="M67.5192 53.3431C67.4525 52.6679 66.8844 52.1532 66.2061 52.1532H51.6481C51.2373 51.629 50.6001 51.2903 49.8841 51.2903H40.1162C39.4 51.2903 38.763 51.629 38.3522 52.1532H23.7942C23.1157 52.1532 22.5477 52.6677 22.4811 53.3431L19.0613 87.9084C19.0086 88.4423 19.1849 88.9767 19.545 89.3743C19.9052 89.7719 20.4197 89.9999 20.9562 89.9999H41.1371C42.0113 89.9999 42.7705 89.4078 42.9835 88.5604L44.8243 81.2441L46.6649 88.5601C46.8779 89.4077 47.6373 89.9997 48.5115 89.9997H69.0443C69.5807 89.9997 70.0951 89.7717 70.4554 89.3741C70.8156 88.9765 70.9919 88.4423 70.9392 87.9084L67.5192 53.3431ZM66.3699 68.5323C63.6378 67.8678 61.6027 65.402 61.6027 62.4682V59.9122H65.5172L66.3699 68.5323ZM40.5136 53.9296H49.4872V58.1524H40.5136V53.9296ZM24.9899 54.7925H37.8743V57.282H24.7436L24.9899 54.7925ZM24.4824 59.9213H28.3979V62.4682C28.3979 65.402 26.3631 67.8691 23.6305 68.5332L24.4824 59.9213ZM49.0847 87.3605L46.104 75.5136C45.9563 74.9272 45.429 74.5159 44.8243 74.5159C44.2194 74.5159 43.6921 74.9268 43.5446 75.5136L40.5641 87.3605H21.7678L23.3602 71.2652C27.6893 70.6756 31.0371 66.9566 31.0371 62.4682V59.9213H38.3464C38.7568 60.4499 39.3967 60.7919 40.1162 60.7919H41.2171V64.7509C41.2171 65.4797 41.8079 66.0705 42.5367 66.0705C43.2655 66.0705 43.8563 65.4797 43.8563 64.7509V60.7919H46.1437V69.7251C46.1437 70.2324 45.731 70.6452 45.2237 70.6452H42.5367C41.8079 70.6452 41.2171 71.236 41.2171 71.9648C41.2171 72.6935 41.8079 73.2843 42.5367 73.2843H45.2237C47.1862 73.2843 48.783 71.6875 48.783 69.725V60.7918H49.884C50.6076 60.7918 51.2505 60.4457 51.6606 59.912H53.4456C54.1744 59.912 54.7652 59.3212 54.7652 58.5924C54.7652 57.8636 54.1744 57.2728 53.4456 57.2728H52.126V54.7925H65.0103L65.2556 57.2728H57.8444C57.1156 57.2728 56.5248 57.8636 56.5248 58.5924C56.5248 59.3212 57.1156 59.912 57.8444 59.912H58.9629V62.468C58.9629 66.9564 62.3106 70.6752 66.6397 71.265L68.2321 87.3604L49.0847 87.3605Z" fill="black"/>
</g>
</svg>
