<svg width="90" height="90" viewBox="0 0 90 90" fill="none" xmlns="http://www.w3.org/2000/svg">
<g id="cosmetics_2681814" clip-path="url(#clip0_48_7404)">
<g id="Group">
<path id="Vector" d="M8.55408 52.8363H21.1606V61.1643H8.55408V52.8363Z" fill="#E3E0E4"/>
<path id="Vector_2" d="M8.55408 52.8363H21.1606V57.0002H8.55408V52.8363Z" fill="#C5BEC6"/>
<path id="Vector_3" d="M70.0133 18.899V43.6082H82.3918V24.1663C82.3918 22.6598 81.543 21.2819 80.1974 20.6044L73.0701 17.0157C71.6678 16.3097 70.0133 17.3289 70.0133 18.899Z" fill="#DF646E"/>
<path id="Vector_4" d="M80.1972 20.6046L76.5172 18.7517C77.0421 19.4358 77.3432 20.2836 77.3432 21.1782V43.6084H82.3915V24.1663C82.3916 22.6599 81.5428 21.2821 80.1972 20.6046Z" fill="#DC4955"/>
<path id="Vector_5" d="M66.6965 54.3802V45.2027C66.6965 44.322 67.4104 43.6082 68.291 43.6082H84.114C84.9947 43.6082 85.7085 44.322 85.7085 45.2027V54.3802H66.6965Z" fill="#655E67"/>
<path id="Vector_6" d="M84.1139 43.6082H79.0657C79.9463 43.6082 80.6602 44.322 80.6602 45.2027V54.3802H85.7084V45.2027C85.7084 44.322 84.9944 43.6082 84.1139 43.6082Z" fill="#544F56"/>
<path id="Vector_7" d="M21.8452 86.4278H7.86954C6.18081 86.4278 4.74168 85.2021 4.47309 83.5348L1.35192 64.1632C1.09844 62.5903 2.31309 61.1642 3.90637 61.1642H25.8084C27.4015 61.1642 28.6163 62.5903 28.3628 64.1632L25.2416 83.5348C24.9731 85.2021 23.5339 86.4278 21.8452 86.4278Z" fill="#655E67"/>
<path id="Vector_8" d="M51.5379 32.1272V80.6729C51.5379 82.2626 50.8935 83.7007 49.8532 84.7433C48.8106 85.7835 47.3726 86.428 45.7828 86.428C42.6034 86.428 40.0277 83.8524 40.0277 80.6729V32.1272H51.5379Z" fill="#EEC06B"/>
<path id="Vector_9" d="M25.8084 61.1642H19.505C21.0981 61.1642 22.313 62.5903 22.0595 64.1632L18.9385 83.5348C18.6699 85.2021 17.2308 86.4278 15.5421 86.4278H21.8452C23.5339 86.4278 24.9731 85.2021 25.2417 83.5348L28.3627 64.1632C28.6161 62.5903 27.4015 61.1642 25.8084 61.1642Z" fill="#544F56"/>
<path id="Vector_10" d="M4.49013 51.8584L7.43289 24.4617C7.52921 23.5642 8.28683 22.8835 9.18964 22.8835H20.5249C21.4277 22.8835 22.1853 23.5642 22.2817 24.4617L25.2244 51.8584C25.2805 52.3807 24.8713 52.8361 24.346 52.8361H5.36851C4.84328 52.8363 4.43406 52.3807 4.49013 51.8584Z" fill="#EEC06B"/>
<path id="Vector_11" d="M25.2244 51.8584L22.2817 24.4617C22.1853 23.5642 21.4277 22.8835 20.5249 22.8835H14.2217C15.1246 22.8835 15.882 23.5642 15.9785 24.4617L18.9213 51.8584C18.9773 52.3807 18.5681 52.8361 18.0429 52.8361H24.3462C24.8713 52.8363 25.2805 52.3807 25.2244 51.8584Z" fill="#E9A761"/>
<path id="Vector_12" d="M47.1901 32.1272V80.6729C47.1901 82.2626 46.6722 83.7007 45.8362 84.7433C45.3268 85.3759 44.6993 85.8609 43.9986 86.1448C44.5604 86.3278 45.1596 86.428 45.7828 86.428C47.3725 86.428 48.8106 85.7835 49.8532 84.7433C50.8934 83.7009 51.5379 82.2626 51.5379 80.6729V32.1272H47.1901Z" fill="#E9A761"/>
<path id="Vector_13" d="M51.5379 52.056V80.6729C51.5379 82.2626 50.8935 83.7007 49.8532 84.7433C48.8106 85.7835 47.3726 86.4279 45.7828 86.4279C42.6034 86.4279 40.0277 83.8524 40.0277 80.6729V52.056H51.5379Z" fill="#655E67"/>
<path id="Vector_14" d="M47.1901 52.056V80.6729C47.1901 82.2626 46.6722 83.7007 45.8362 84.7433C45.3268 85.3759 44.6993 85.8609 43.9986 86.1448C44.6546 86.3583 45.3611 86.4568 46.079 86.4204C46.6677 86.3905 47.2328 86.2722 47.7617 86.0787C48.5037 85.8071 49.2385 85.3564 49.853 84.7433C50.4382 84.1569 50.898 83.4453 51.1884 82.652C51.4143 82.035 51.5377 81.3684 51.5377 80.673V52.056H47.1901Z" fill="#544F56"/>
<path id="Vector_15" d="M40.0277 32.1273C40.0277 32.1273 29.3992 18.6324 29.3992 9.9704C29.3992 1.43956 61.7138 1.43956 61.7138 9.9704C61.7138 18.6324 51.5378 32.1273 51.5378 32.1273H40.0277Z" fill="#AB7B64"/>
<g id="Group_2">
<path id="Vector_16" d="M29.3992 9.97022C29.3992 9.87407 29.4063 9.7802 29.4128 9.68616C29.4047 9.78002 29.3992 9.87442 29.3992 9.97022Z" fill="#934C35"/>
<path id="Vector_17" d="M43.7857 3.60682C49.7781 3.89229 55.3678 6.01256 55.3678 9.97028C55.3678 18.6323 47.1902 32.1272 47.1902 32.1272H51.538C51.538 32.1272 61.714 18.6323 61.714 9.97028C61.7138 5.39258 52.4092 3.27161 43.7857 3.60682Z" fill="#9A6A53"/>
</g>
<path id="Vector_18" d="M63.7233 56.0519V79.3176C63.7233 83.2444 66.9067 86.4278 70.8335 86.4278H81.5714C85.4982 86.4278 88.6816 83.2444 88.6816 79.3176V56.0519C88.6816 55.1287 87.9331 54.3802 87.0099 54.3802H65.395C64.4716 54.3802 63.7233 55.1287 63.7233 56.0519Z" fill="#EEC06B"/>
<path id="Vector_19" d="M87.0099 54.3802H81.9617C82.8849 54.3802 83.6334 55.1287 83.6334 56.0519V79.3176C83.6334 83.2444 80.4501 86.4278 76.5232 86.4278H81.5715C85.4982 86.4278 88.6816 83.2444 88.6816 79.3176V56.0519C88.6816 55.1287 87.9332 54.3802 87.0099 54.3802Z" fill="#E9A761"/>
<g id="Group_3">
<path id="Vector_20" d="M25.8081 59.8458H22.4786V54.1547H24.3458C24.9698 54.1547 25.5667 53.8884 25.9837 53.4243C26.4006 52.9601 26.6016 52.3382 26.5349 51.7178L23.5922 24.3209C23.4236 22.7498 22.1047 21.5652 20.5246 21.5652H9.18937C7.60927 21.5652 6.29056 22.75 6.12181 24.3209L5.24783 32.458C5.17013 33.1819 5.69396 33.8317 6.41782 33.9096C7.14116 33.9875 7.79173 33.4635 7.86943 32.7396L8.74341 24.6025C8.76802 24.3742 8.95962 24.2019 9.18937 24.2019H20.5248C20.7545 24.2019 20.9461 24.374 20.9708 24.6025L23.8617 51.5181H5.85251L7.20937 38.8856C7.28706 38.1617 6.76324 37.5119 6.03937 37.434C5.31761 37.3561 4.66564 37.8801 4.58777 38.604L3.17923 51.7178C3.11261 52.3382 3.31353 52.9602 3.73048 53.4245C4.14743 53.8887 4.74456 54.1549 5.36841 54.1549H7.23556V59.8461H3.90609C2.75982 59.8461 1.67595 60.3466 0.932747 61.2193C0.189368 62.0921 -0.132311 63.2415 0.0501496 64.3732L3.17115 83.7446C3.54468 86.0634 5.52064 87.7463 7.86925 87.7463H21.8451C24.1939 87.7463 26.1697 86.0634 26.5432 83.7446L29.6642 64.373C29.8467 63.2412 29.525 62.0917 28.7816 61.219C28.0382 60.3464 26.9543 59.8458 25.8081 59.8458ZM9.8721 54.1547H19.8421V59.8459H9.8721V54.1547ZM27.0611 63.9536L23.9399 83.3254C23.7734 84.3593 22.8922 85.1097 21.8449 85.1097H7.86925C6.82195 85.1097 5.94093 84.3593 5.77429 83.3254L2.65312 63.9534C2.593 63.5802 2.69495 63.2164 2.93999 62.9286C3.18503 62.6409 3.52816 62.4825 3.90609 62.4825H25.8083C26.1862 62.4825 26.5293 62.6409 26.7743 62.9286C27.0192 63.2164 27.121 63.5804 27.0611 63.9536Z" fill="black"/>
<path id="Vector_21" d="M63.032 9.97016C63.032 8.16594 62.0031 5.65315 57.1022 3.92786C54.0348 2.84821 49.9342 2.25354 45.5562 2.25354C41.1781 2.25354 37.0777 2.84821 34.0103 3.92786C29.1094 5.65297 28.0805 8.16577 28.0805 9.97016C28.0805 12.2875 28.7696 15.0854 30.1287 18.286C30.4133 18.9563 31.1876 19.269 31.8575 18.9842C32.5278 18.6996 32.8403 17.9257 32.5557 17.2554C31.3358 14.3824 30.7172 11.9312 30.7172 9.96999C30.7172 8.02831 33.7475 6.37403 38.3117 5.5171C38.2765 5.82172 38.2568 6.13286 38.2568 6.45172C38.2568 8.61524 38.549 11.2729 39.125 14.3512C39.2437 14.9848 39.7972 15.4273 40.4195 15.4273C40.5 15.4273 40.5815 15.4199 40.6635 15.4046C41.3791 15.2707 41.8507 14.582 41.7167 13.8662C41.1706 10.9475 40.8936 8.45299 40.8936 6.4519C40.8936 5.97553 40.9516 5.52993 41.0648 5.1186C42.4765 4.97024 43.984 4.89026 45.5562 4.89026C47.093 4.89026 48.6091 4.97165 50.05 5.12563C50.162 5.53485 50.2191 5.97835 50.2191 6.45208C50.2191 8.45001 49.9695 10.9528 49.4773 13.8911C49.3569 14.6092 49.8415 15.289 50.5596 15.4092C50.6334 15.4215 50.7067 15.4275 50.779 15.4275C51.4114 15.4275 51.9697 14.9711 52.0776 14.3267C52.5941 11.2449 52.8558 8.59538 52.8558 6.45208C52.8558 6.13637 52.8367 5.82805 52.802 5.52624C54.0624 5.76301 55.2208 6.06114 56.2264 6.41516C57.7831 6.96307 60.3949 8.15364 60.3949 9.97016C60.3949 17.1628 52.6934 28.2765 50.8683 30.8087H40.6779C39.7795 29.6181 37.4562 26.4424 35.2884 22.6711C34.9256 22.0398 34.1198 21.8222 33.4884 22.185C32.8572 22.5478 32.6396 23.3538 33.0024 23.985C35.3832 28.127 37.8798 31.4909 38.7086 32.5767V80.6727C38.7086 84.5731 41.8818 87.7462 45.782 87.7462C47.6697 87.7462 49.4462 87.011 50.7858 85.6742C52.1205 84.3365 52.8555 82.5603 52.8555 80.6727V32.5625C54.5189 30.2929 63.032 18.2677 63.032 9.97016ZM41.3458 33.4456H50.2194V50.7377H41.3458V33.4456ZM48.9218 83.8101C48.0821 84.6482 46.9671 85.1096 45.7827 85.1096C43.3362 85.1096 41.346 83.1192 41.346 80.6729V53.3744H50.2196V80.6731C50.2193 81.8573 49.7577 82.9723 48.9218 83.8101Z" fill="black"/>
<path id="Vector_22" d="M87.0268 53.0627V45.2027C87.0268 43.5966 85.7201 42.2898 84.114 42.2898H83.71V39.7454C83.71 39.0173 83.1199 38.427 82.3916 38.427C81.6634 38.427 81.0733 39.0173 81.0733 39.7454V42.2898H71.3317V18.8989C71.3317 18.5006 71.5945 18.2958 71.7075 18.2262C71.8202 18.1566 72.1214 18.0139 72.4771 18.1932L79.6045 21.7819C80.5104 22.2381 81.0733 23.1518 81.0733 24.1662V33.593C81.0733 34.3211 81.6634 34.9114 82.3916 34.9114C83.1199 34.9114 83.71 34.3211 83.71 33.593V24.1662C83.71 22.1497 82.5912 20.3337 80.7903 19.4268L73.6629 15.8381C72.5929 15.2993 71.3448 15.3526 70.3244 15.9811C69.3042 16.6097 68.6949 17.7005 68.6949 18.8988V42.2896H68.291C66.6847 42.2896 65.3781 43.5964 65.3781 45.2025V53.0626C63.7372 53.0717 62.405 54.4087 62.405 56.0517V79.3178C62.405 83.9652 66.186 87.7463 70.8335 87.7463H81.5714C86.2191 87.7463 90 83.9652 90 79.3178V56.0519C90 54.4089 88.6676 53.0721 87.0268 53.0627ZM68.2908 44.9265H84.1138C84.266 44.9265 84.3899 45.0504 84.3899 45.2027V53.0619H68.0145V45.2027C68.0147 45.0504 68.1386 44.9265 68.2908 44.9265ZM87.3633 79.3178C87.3633 82.5114 84.765 85.1096 81.5714 85.1096H70.8335C67.6399 85.1096 65.0417 82.5114 65.0417 79.3178V56.0519C65.0417 55.8571 65.2001 55.6986 65.395 55.6986H87.0099C87.2047 55.6986 87.3633 55.8569 87.3633 56.0519V79.3178Z" fill="black"/>
</g>
</g>
</g>
<defs>
<clipPath id="clip0_48_7404">
<rect width="90" height="90" fill="white"/>
</clipPath>
</defs>
</svg>
