<svg width="90" height="90" viewBox="0 0 90 90" fill="none" xmlns="http://www.w3.org/2000/svg">
<g id="dress_1069326" clip-path="url(#clip0_48_7188)">
<path id="Vector" d="M53.406 1.31909C53.406 6.01848 50.5365 11.4842 44.9973 11.4842C39.4602 11.4842 36.5907 6.01848 36.5907 1.31909H53.406Z" fill="#594F69"/>
<path id="Vector_2" d="M73.1655 86.2225C53.3035 89.6014 37.0026 89.4003 17.2032 86.1875C15.4296 85.8991 5.95384 84.9336 7.13281 82.8765L28.5665 49.391C29.4927 47.7361 30.11 46.2956 30.4691 44.6339C30.8756 42.7525 30.9491 40.5882 30.7665 37.5127C30.6168 35.0243 30.2982 31.9386 29.8498 27.9224C27.886 26.7983 26.4832 24.588 26.1962 22.123C25.883 19.4217 27.0201 16.5928 28.3536 14.2225C30.9402 9.62404 31.495 1.31909 31.495 1.31909H37.4935C37.4935 5.40942 40.0204 10.1637 44.8928 10.1637C49.7666 10.1637 52.2921 5.40942 52.2921 1.31909H58.2907C58.2907 1.31909 58.8468 9.62404 61.4334 14.2225C62.7655 16.5928 63.904 19.4217 63.5888 22.123C63.3039 24.588 61.9017 26.7983 59.9359 27.9224C59.4785 32.023 59.2039 35.0772 59.1084 37.5127C58.9924 40.5951 59.1634 42.6825 59.6193 44.6339C59.9777 46.1637 60.5126 47.6112 61.2206 49.391L82.8657 82.871C84.0131 84.8471 74.8752 85.9307 73.1655 86.2225Z" fill="#FF2C5C"/>
<path id="Vector_3" d="M82.8664 82.871L61.2206 49.391C60.5134 47.6112 59.9785 46.1637 59.6193 44.6339C59.1634 42.6825 58.9924 40.5951 59.1092 37.5127C59.2039 35.0772 59.4786 32.023 59.9359 27.9224C61.9017 26.7983 63.3039 24.588 63.5888 22.123C63.904 19.4217 62.7655 16.5928 61.4335 14.2225C58.8469 9.62404 58.2907 1.31909 58.2907 1.31909H53.0378C53.2438 3.47378 54.0019 9.70369 56.1154 13.461C57.4475 15.8313 58.5859 18.6603 58.2708 21.3615C58.0215 23.5183 56.9167 25.4807 55.3271 26.6899C54.8568 27.0476 54.5691 27.5955 54.5052 28.1833C54.1152 31.7758 53.8776 34.5224 53.7911 36.7505C53.6744 39.8336 53.8453 41.921 54.3013 43.8724C54.6597 45.4022 55.1946 46.8497 55.9025 48.6288L77.5477 82.1088C78.1972 83.2287 76.2726 84.8224 74.1749 86.0673C77.0849 85.6327 83.8634 84.5896 82.8664 82.871Z" fill="#E62753"/>
<path id="Vector_4" d="M11.4512 16.1966L13.2124 19.7747C13.4019 20.1599 13.7686 20.427 14.193 20.4888L18.1309 21.0628C19.1993 21.2187 19.6257 22.535 18.8525 23.2903L16.0036 26.0753C15.6967 26.3754 15.5559 26.8079 15.6287 27.2316L16.3016 31.164C16.4843 32.2311 15.3671 33.0447 14.4113 32.5414L10.8895 30.6847C10.5098 30.4849 10.0566 30.4849 9.67688 30.6847L6.15508 32.5414C5.19927 33.0447 4.08278 32.2317 4.26474 31.164L4.93766 27.2316C5.00975 26.8079 4.86968 26.376 4.56275 26.076L1.71386 23.291C0.940694 22.535 1.3671 21.2187 2.43552 21.0628L6.37343 20.4888C6.79778 20.427 7.16445 20.1599 7.35396 19.7747L9.11521 16.1966C9.59311 15.2257 10.9733 15.2257 11.4512 16.1966Z" fill="#FFD659"/>
<path id="Vector_5" d="M18.8532 23.291C19.6256 22.535 19.1992 21.2187 18.1308 21.0628L14.1936 20.4888C13.7692 20.427 13.4026 20.1599 13.2124 19.7747L11.4511 16.1966C10.9732 15.2257 9.59306 15.2257 9.11516 16.1966L9.02246 16.3847C9.96042 23.2024 13.6518 24.726 13.4239 32.0203L14.4113 32.5414C15.3671 33.0447 16.4836 32.2311 16.3016 31.164L15.6287 27.2316C15.5559 26.8079 15.6967 26.376 16.0029 26.0753L18.8532 23.291Z" fill="#FFBD54"/>
<path id="Vector_6" d="M82.5629 49.4294L83.9445 52.2041C84.0935 52.5035 84.3812 52.7109 84.7135 52.7589L87.802 53.2032C88.6397 53.324 88.9748 54.3451 88.3678 54.9315L86.1335 57.091C85.8925 57.3237 85.7826 57.6595 85.8396 57.9877L86.3669 61.0371C86.5098 61.8652 85.6343 62.4962 84.8845 62.1048L82.1221 60.6649C81.8248 60.5098 81.4691 60.5098 81.1711 60.6649L78.4087 62.1048C77.6596 62.4962 76.7834 61.8652 76.9262 61.0371L77.4543 57.9877C77.5106 57.6595 77.4007 57.3237 77.1604 57.091L74.9254 54.9315C74.3191 54.3451 74.6535 53.324 75.4918 53.2032L78.5797 52.7589C78.9127 52.7109 79.2004 52.5035 79.3487 52.2041L80.7303 49.4294C81.1059 48.6769 82.1887 48.6769 82.5629 49.4294Z" fill="#FFD659"/>
<path id="Vector_7" d="M59.6194 44.6345H30.4232C30.8297 42.7517 30.9032 40.5881 30.7205 37.512H59.1092C58.9939 40.595 59.1641 42.6817 59.6194 44.6345Z" fill="#685C79"/>
<path id="Vector_8" d="M59.6193 44.6345H54.4956C54.4249 44.3811 54.3603 44.1285 54.3006 43.8716C53.8838 42.0857 53.706 40.1857 53.7678 37.512H59.1092C58.9938 40.595 59.1641 42.6817 59.6193 44.6345Z" fill="#594F69"/>
<path id="Vector_9" d="M86.1328 57.091C85.8918 57.3231 85.7826 57.6588 85.8389 57.9877L86.3663 61.0371C86.5105 61.8652 85.6336 62.4962 84.8845 62.1055L84.4856 61.8968C84.2906 56.4984 81.761 54.4824 80.5346 49.8249L80.731 49.4294C81.1059 48.6769 82.188 48.6769 82.563 49.4294L83.9445 52.2048C84.0935 52.5035 84.3805 52.7109 84.7142 52.7583L87.8027 53.2032C88.6391 53.324 88.9749 54.3458 88.3685 54.9308L86.1328 57.091Z" fill="#FFBD54"/>
<path id="Vector_10" d="M44.9987 27.4657C42.1635 27.4657 38.7186 28.0027 38.5737 28.0253C37.8541 28.1386 37.3632 28.8136 37.4758 29.5325C37.5781 30.1821 38.1391 30.6462 38.777 30.6462C38.845 30.6462 38.9136 30.6407 38.983 30.6297C39.0166 30.6249 42.3675 30.1031 44.9987 30.1031C47.6533 30.1031 51.035 30.4856 51.0693 30.4897C51.7924 30.5714 52.4454 30.053 52.5284 29.3292C52.6115 28.6062 52.0917 27.9525 51.3687 27.8701C51.2245 27.853 47.8057 27.4657 44.9987 27.4657Z" fill="black"/>
<path id="Vector_11" d="M83.9734 82.1554L79.7793 75.6687C79.3838 75.0569 78.5681 74.8818 77.957 75.2766C77.3452 75.6721 77.1701 76.4886 77.5656 77.0997L81.4197 83.0618C80.6946 83.4456 78.7816 84.0471 73.8337 84.7853C73.4533 84.8423 73.1477 84.8883 72.9445 84.9226C53.7685 88.1855 37.6804 88.1745 17.4148 84.8862C17.1724 84.8464 16.8167 84.7983 16.3676 84.7372C15.122 84.5676 13.24 84.3115 11.5137 83.9441C9.83145 83.5857 8.98893 83.2623 8.58106 83.0584L25.8832 56.0287C26.2759 55.4155 26.0967 54.6005 25.4835 54.2077C24.8704 53.8156 24.0553 53.9941 23.6625 54.6073L6.02194 82.165C6.01095 82.1836 5.99928 82.2021 5.98898 82.2207C5.65046 82.8112 5.62368 83.4909 5.91619 84.0842C6.65365 85.5818 9.29586 86.436 16.0119 87.3492C16.4425 87.4076 16.783 87.4543 16.9918 87.4879C27.3128 89.1626 36.566 90.0003 45.6867 90.0003C54.7477 90.0003 63.6775 89.1736 73.3874 87.5215C73.5782 87.4886 73.8659 87.446 74.223 87.3931C80.7915 86.4126 83.3739 85.5371 84.0894 84.0485C84.373 83.4587 84.3428 82.7885 84.0063 82.209C83.996 82.1904 83.9844 82.1726 83.9734 82.1554Z" fill="black"/>
<path id="Vector_12" d="M28.6091 28.6948C28.9971 32.1884 29.2855 35.0181 29.4317 37.295C29.4153 37.3932 29.4091 37.4928 29.4153 37.5937C29.602 40.6225 29.5189 42.6419 29.1372 44.3461C29.1131 44.4526 29.1042 44.5597 29.1063 44.6661C28.7945 45.9543 28.2864 47.1868 27.435 48.7132L26.6941 49.8702C26.302 50.484 26.4805 51.2991 27.0937 51.6912C27.3141 51.8326 27.5599 51.8999 27.8037 51.8999C28.2384 51.8999 28.6634 51.685 28.9154 51.2915L29.6776 50.1009C29.6913 50.0789 29.7043 50.0569 29.7174 50.0336C30.5613 48.5257 31.1181 47.252 31.4944 45.9522H58.6011C58.9438 47.1538 59.3922 48.3596 59.9957 49.877C60.0273 49.9574 60.0671 50.0336 60.1138 50.1057L74.5121 72.377C74.7641 72.767 75.1877 72.9791 75.6203 72.9791C75.8655 72.9791 76.1133 72.9112 76.3351 72.7677C76.9462 72.3728 77.1213 71.5564 76.7265 70.9453L62.3983 48.7832C61.6972 47.0151 61.2262 45.7091 60.9035 44.3338C60.8142 43.9513 60.7373 43.5627 60.6721 43.1637C60.4153 41.5886 60.3411 39.839 60.4269 37.5614C60.4269 37.5587 60.4269 37.5566 60.4269 37.5539C60.5121 35.3848 60.7442 32.6341 61.1774 28.6941C63.192 27.2851 64.5969 24.8867 64.8984 22.2754C65.1964 19.7238 64.439 16.8777 62.583 13.5756C62.009 12.5566 61.4905 11.2294 61.0415 9.63223C60.8444 8.93116 60.1152 8.5233 59.4148 8.72036C58.7144 8.91743 58.3059 9.64527 58.5029 10.3463C59.0097 12.1453 59.6084 13.6663 60.2841 14.8679C61.8359 17.6289 62.5075 20.0177 62.2795 21.9705C62.0433 24.0133 60.8952 25.8548 59.2823 26.777C58.9163 26.9857 58.6725 27.3565 58.6259 27.7754C58.2242 31.3796 57.979 34.0465 57.8541 36.1929H31.9977C31.8247 33.8996 31.5343 31.1269 31.16 27.7754C31.1133 27.3572 30.8696 26.9864 30.5043 26.777C28.8927 25.8555 27.744 24.0133 27.5064 21.9705C27.2798 20.0156 27.9513 17.6261 29.5032 14.8686C31.6201 11.1044 32.4358 5.19033 32.7009 2.63671H36.2501C36.7658 7.18297 39.9161 11.482 44.8929 11.482C47.5297 11.482 49.8711 10.2639 51.4854 8.05226C52.5909 6.53615 53.3112 4.6163 53.5357 2.63671H57.0864C57.1413 3.15856 57.2196 3.82117 57.3267 4.57991C57.4283 5.30088 58.0965 5.80213 58.8161 5.70051C59.5377 5.5982 60.039 4.93147 59.9373 4.21049C59.6915 2.47329 59.6071 1.24214 59.6064 1.22978C59.5597 0.538328 58.9843 0 58.2908 0H54.4071C54.4057 0 54.4037 0 54.4023 0H35.536C35.534 0 35.5326 0 35.5305 0H31.4951C30.8009 0 30.2255 0.538328 30.1795 1.23046C30.174 1.3108 29.6171 9.28684 27.205 13.5749C25.3489 16.8736 24.5909 19.719 24.8875 22.2747C25.191 24.8881 26.5959 27.2858 28.6091 28.6948ZM57.7579 38.8956C57.7449 40.3821 57.8067 41.8557 58.0257 43.3134C58.0264 43.3148 58.0264 43.3155 58.0264 43.3162H32.0211C32.1728 42.0418 32.2127 40.5984 32.1495 38.8303H57.7579V38.8956ZM44.8929 8.84533C41.2633 8.84533 39.3627 5.55013 38.9171 2.63739H50.8688C50.4232 5.55013 48.5226 8.84533 44.8929 8.84533Z" fill="black"/>
<path id="Vector_13" d="M10.2751 31.8507L13.7969 33.7073C14.6854 34.1756 15.7421 34.1001 16.5551 33.511C17.3702 32.9198 17.7712 31.9351 17.6009 30.9422L16.9252 27.0188L19.7741 24.2337C20.4937 23.5306 20.7471 22.4993 20.4354 21.5421C20.1243 20.5863 19.3141 19.9031 18.3212 19.7582L14.3949 19.1924L12.6344 15.6143C12.1901 14.7114 11.2892 14.1504 10.2833 14.1504C9.27806 14.1504 8.37718 14.7114 7.93292 15.6143L6.18334 19.1849L2.24612 19.7582C1.25254 19.9031 0.442301 20.5863 0.131251 21.5421C-0.180486 22.4993 0.0728859 23.5306 0.79249 24.2337L3.63864 27.0098L2.96572 30.9422C2.79612 31.9351 3.19644 32.9198 4.01148 33.511C4.47085 33.8433 5.00712 34.0122 5.54682 34.0122C5.96362 34.0122 6.38316 33.9113 6.76974 33.7073L10.2751 31.8507ZM5.48434 25.1326L2.65124 22.3633L6.56306 21.7934C7.41725 21.6691 8.15539 21.1322 8.53716 20.3563L10.2833 16.8091L12.0294 20.3563C12.4112 21.1322 13.1494 21.6691 14.0036 21.7934L17.9154 22.364L15.0823 25.1326C14.4657 25.7354 14.1841 26.6033 14.3297 27.4541L14.9971 31.3597L11.5042 29.5181C11.1217 29.317 10.7028 29.216 10.2833 29.216C9.86376 29.216 9.44491 29.317 9.06245 29.5181L5.5688 31.3597L6.2369 27.4541C6.38247 26.604 6.10163 25.7361 5.48434 25.1326Z" fill="black"/>
<path id="Vector_14" d="M89.8826 53.4916C89.6065 52.6374 88.8814 52.027 87.9902 51.8986L85.0541 51.4756L83.7433 48.8423C83.3457 48.0431 82.5423 47.5473 81.6469 47.5466C80.7516 47.5466 79.9482 48.0431 79.5506 48.8423L78.2398 51.4756L75.3037 51.8986C74.4125 52.027 73.6874 52.6374 73.4113 53.4916C73.1367 54.3423 73.3653 55.2569 74.0094 55.879L76.127 57.9259L75.6271 60.8126C75.4754 61.6901 75.829 62.5621 76.55 63.0881C77.2751 63.6182 78.2213 63.6896 79.0185 63.2742L81.6469 61.9043L84.2754 63.2742C84.6201 63.4534 84.9916 63.5427 85.3624 63.5427C85.8485 63.5427 86.3319 63.3895 86.7439 63.0888C87.4642 62.5621 87.8178 61.6901 87.6661 60.8126L87.1669 57.9259L89.2838 55.879C89.9286 55.2569 90.1572 54.3423 89.8826 53.4916ZM85.2175 56.1427C84.662 56.6797 84.4093 57.4528 84.5405 58.2123L84.9641 60.6594L82.7318 59.4956C82.0528 59.142 81.2418 59.142 80.562 59.4963L78.3298 60.6594L78.7534 58.2123C78.8846 57.4528 78.6319 56.679 78.0764 56.1427L76.2932 54.4192L78.7685 54.0629C79.5293 53.953 80.1878 53.4779 80.5298 52.7912L81.6469 50.5473L82.7641 52.7912C83.1054 53.4779 83.7639 53.953 84.5254 54.0629L87 54.4192L85.2175 56.1427Z" fill="black"/>
</g>
<defs>
<clipPath id="clip0_48_7188">
<rect width="90" height="90" fill="white"/>
</clipPath>
</defs>
</svg>
