<svg width="90" height="90" viewBox="0 0 90 90" fill="none" xmlns="http://www.w3.org/2000/svg">
<g id="earrings_1650777" clip-path="url(#clip0_48_7253)">
<path id="Vector" d="M22.0606 30.6312H28.3887V41.0998H22.0606V30.6312Z" fill="#FEDC6C"/>
<path id="Vector_2" d="M25.4004 34.0068V30.6312H22.0606V41.0991H28.3887V36.995C26.738 36.995 25.4004 35.6575 25.4004 34.0068Z" fill="#F9B741"/>
<path id="Vector_3" d="M36.2865 42.9907C33.4548 40.159 29.545 38.4081 25.2246 38.4081C16.5846 38.4081 9.58014 45.4132 9.58014 54.0526V73.0369C9.58014 81.6763 16.5846 88.6814 25.2246 88.6814C33.864 88.6814 40.8691 81.6763 40.8691 73.0369V54.0526C40.8691 49.7322 39.1182 45.8225 36.2865 42.9907Z" fill="#FEC95A"/>
<path id="Vector_4" d="M37.2038 80.4198C28.5645 80.4198 21.5593 73.4146 21.5593 64.7753V45.7909C21.5593 43.1659 22.2068 40.6926 23.3494 38.5208C15.5938 39.447 9.58014 46.0477 9.58014 54.0526V73.037C9.58014 81.6763 16.5846 88.6815 25.2246 88.6815C31.2396 88.6815 36.4609 85.286 39.0791 80.3072C38.4645 80.3806 37.8383 80.4198 37.2038 80.4198Z" fill="#F9B741"/>
<path id="Vector_5" d="M36.443 53.2053C36.0084 47.3956 31.1428 42.8026 25.2246 42.8026C19.3058 42.8026 14.4402 47.3956 14.0063 53.2053C13.985 53.4847 13.9747 53.7676 13.9747 54.0526V73.0369C13.9747 73.854 14.0626 74.6505 14.2294 75.4189C15.3246 80.4829 19.8386 84.2869 25.2246 84.2869C30.6107 84.2869 35.1247 80.4829 36.2199 75.4189C36.3867 74.6505 36.4746 73.854 36.4746 73.0369V54.0526C36.4746 53.7676 36.4643 53.4847 36.443 53.2053Z" fill="#BA88FC"/>
<path id="Vector_6" d="M19.9512 59.1503V69.6971L14.2294 75.4189C14.0626 74.6506 13.9747 73.8541 13.9747 73.037V54.0526C13.9747 53.7677 13.985 53.4848 14.0063 53.2053L19.9512 59.1503Z" fill="#5913A3"/>
<path id="Vector_7" d="M36.4746 54.0526V73.037C36.4746 73.8541 36.3867 74.6506 36.2199 75.4189L30.4981 69.6971V59.1503L36.443 53.2053C36.4643 53.4848 36.4746 53.7677 36.4746 54.0526Z" fill="#5913A3"/>
<path id="Vector_8" d="M30.4981 69.6971L36.2199 75.4189C35.1247 80.4829 30.6107 84.287 25.2246 84.287V74.9706L30.4981 69.6971Z" fill="#7844C1"/>
<path id="Vector_9" d="M25.2246 42.8026V53.8768L19.9512 59.1502L14.0063 53.2053C14.4402 47.3956 19.3058 42.8026 25.2246 42.8026Z" fill="#7844C1"/>
<path id="Vector_10" d="M30.4981 59.1503V69.6971L25.2247 74.9705L19.9512 69.6971V59.1503L25.2247 53.8768L30.4981 59.1503Z" fill="#6A18B6"/>
<path id="Vector_11" d="M30.2076 31.7937C30.3573 32.4824 29.832 33.1348 29.1255 33.1348H21.3238C20.6173 33.1348 20.092 32.4824 20.241 31.7937L20.9125 28.6826C21.2819 26.9721 22.7932 25.752 24.5428 25.752H25.9065C27.6554 25.752 29.1674 26.9721 29.5368 28.6826L30.2076 31.7937Z" fill="#E0A64F"/>
<path id="Vector_12" d="M61.4355 30.6312H67.7636V41.0998H61.4355V30.6312Z" fill="#FEDC6C"/>
<path id="Vector_13" d="M64.7754 34.0068V30.6312H61.4355V41.0991H67.7636V36.995C66.1129 36.995 64.7754 35.6575 64.7754 34.0068Z" fill="#F9B741"/>
<path id="Vector_14" d="M75.6614 42.9907C72.8297 40.159 68.9199 38.4081 64.5996 38.4081C55.9595 38.4081 48.9551 45.4132 48.9551 54.0526V73.0369C48.9551 81.6763 55.9595 88.6814 64.5996 88.6814C73.2389 88.6814 80.2441 81.6763 80.2441 73.0369V54.0526C80.2441 49.7322 78.4931 45.8225 75.6614 42.9907Z" fill="#FEC95A"/>
<path id="Vector_15" d="M76.5788 80.4198C67.9394 80.4198 60.9343 73.4146 60.9343 64.7753V45.7909C60.9343 43.1659 61.5818 40.6926 62.7244 38.5208C54.9687 39.447 48.9551 46.0477 48.9551 54.0526V73.037C48.9551 81.6763 55.9595 88.6815 64.5996 88.6815C70.6146 88.6815 75.8358 85.286 78.454 80.3072C77.8394 80.3806 77.2132 80.4198 76.5788 80.4198Z" fill="#F9B741"/>
<path id="Vector_16" d="M75.8179 53.2053C75.3833 47.3956 70.5177 42.8026 64.5996 42.8026C58.6807 42.8026 53.8151 47.3956 53.3812 53.2053C53.3599 53.4847 53.3496 53.7676 53.3496 54.0526V73.0369C53.3496 73.854 53.4375 74.6505 53.6043 75.4189C54.6995 80.4829 59.2135 84.2869 64.5996 84.2869C69.9856 84.2869 74.4996 80.4829 75.5948 75.4189C75.7616 74.6505 75.8495 73.854 75.8495 73.0369V54.0526C75.8495 53.7676 75.8392 53.4847 75.8179 53.2053Z" fill="#BA88FC"/>
<path id="Vector_17" d="M59.3261 59.1503V69.6971L53.6043 75.4189C53.4375 74.6506 53.3496 73.8541 53.3496 73.037V54.0526C53.3496 53.7677 53.3599 53.4848 53.3812 53.2053L59.3261 59.1503Z" fill="#5913A3"/>
<path id="Vector_18" d="M75.8495 54.0526V73.037C75.8495 73.8541 75.7616 74.6506 75.5948 75.4189L69.873 69.6971V59.1503L75.818 53.2053C75.8392 53.4848 75.8495 53.7677 75.8495 54.0526Z" fill="#5913A3"/>
<path id="Vector_19" d="M69.873 69.6971L75.5948 75.4189C74.4996 80.4829 69.9856 84.287 64.5996 84.287V74.9706L69.873 69.6971Z" fill="#7844C1"/>
<path id="Vector_20" d="M64.5996 42.8026V53.8768L59.3261 59.1502L53.3812 53.2053C53.8151 47.3956 58.6807 42.8026 64.5996 42.8026Z" fill="#7844C1"/>
<path id="Vector_21" d="M69.873 59.1503V69.6971L64.5996 74.9705L59.3261 69.6971V59.1503L64.5996 53.8768L69.873 59.1503Z" fill="#6A18B6"/>
<path id="Vector_22" d="M69.5825 31.7937C69.7322 32.4824 69.2069 33.1348 68.5004 33.1348H60.6987C59.9922 33.1348 59.4669 32.4824 59.6159 31.7937L60.2874 28.6826C60.6569 26.9721 62.1682 25.752 63.9177 25.752H65.2814C67.0303 25.752 68.5423 26.9721 68.9117 28.6826L69.5825 31.7937Z" fill="#E0A64F"/>
<path id="Vector_23" d="M25.0743 31.7937L25.7458 28.6826C25.9834 27.5805 26.6968 26.6844 27.6409 26.1845C27.1198 25.9085 26.5286 25.752 25.9065 25.752H24.5421C22.7932 25.752 21.2819 26.9721 20.9125 28.6826L20.241 31.7937C20.0913 32.4824 20.6173 33.1348 21.3238 33.1348H26.1571C25.4506 33.1348 24.9246 32.4824 25.0743 31.7937Z" fill="#D89845"/>
<path id="Vector_24" d="M64.4492 31.7937L65.1207 28.6826C65.3583 27.5805 66.0717 26.6844 67.0159 26.1845C66.4947 25.9085 65.9035 25.752 65.2814 25.752H63.917C62.1682 25.752 60.6569 26.9721 60.2874 28.6826L59.6159 31.7937C59.4662 32.4824 59.9922 33.1348 60.6987 33.1348H65.532C64.8255 33.1348 64.2995 32.4824 64.4492 31.7937Z" fill="#D89845"/>
<path id="Vector_25" d="M29.7071 37.692V34.381C30.2165 34.256 30.6752 33.9697 31.013 33.5508C31.4765 32.9775 31.653 32.2352 31.4971 31.5149L30.8263 28.4037C30.5626 27.1836 29.8547 26.1447 28.8989 25.434C29.8334 24.4686 30.4102 23.155 30.4102 21.7089C30.4102 19.2075 28.6881 17.1009 26.3672 16.5117V6.76756C26.3672 6.03972 25.7767 5.44921 25.0489 5.44921H23.7305C22.9553 5.44921 22.3243 4.81818 22.3243 4.04296C22.3243 3.26774 22.9553 2.63671 23.7305 2.63671H26.9165C27.7769 2.63671 28.4766 3.3364 28.4766 4.19677V9.05272C28.4766 9.78056 29.0664 10.3711 29.7949 10.3711C30.5228 10.3711 31.1133 9.78056 31.1133 9.05272V4.19677C31.1133 1.88278 29.2305 0 26.9165 0H23.7305C21.501 0 19.6875 1.81343 19.6875 4.04296C19.6875 6.27249 21.501 8.08592 23.7305 8.08592V16.5124C21.4096 17.1009 19.6875 19.2075 19.6875 21.7089C19.6875 23.2326 20.3275 24.6093 21.352 25.5864C20.4964 26.2895 19.8681 27.2694 19.623 28.4037L18.9521 31.5149C18.7963 32.2359 18.9727 32.9775 19.4362 33.5508C19.7741 33.9697 20.2327 34.256 20.7422 34.381V37.692C13.5572 39.6633 8.26178 46.2503 8.26178 54.0526V73.037C8.26178 82.3904 15.8712 89.9998 25.2246 89.9998C34.5781 89.9998 42.1875 82.3904 42.1875 73.037V54.0526C42.1875 46.2503 36.8921 39.6626 29.7071 37.692ZM25.0489 18.9843C26.5512 18.9843 27.7735 20.2066 27.7735 21.7089C27.7735 23.2113 26.5512 24.4335 25.0489 24.4335C23.5465 24.4335 22.3243 23.2113 22.3243 21.7089C22.3243 20.2066 23.5465 18.9843 25.0489 18.9843ZM25.9072 27.0703C27.0278 27.0703 28.0124 27.8654 28.2486 28.9599L28.8645 31.8163H21.5841L22.2007 28.9606C22.4369 27.8654 23.4215 27.0703 24.5421 27.0703H25.9072ZM23.3789 34.4531H27.0703V37.1907C26.464 37.1248 25.8481 37.0898 25.2246 37.0898C24.6012 37.0898 23.9852 37.1248 23.3789 37.1907V34.4531ZM39.5508 73.037C39.5508 80.9361 33.1238 87.3631 25.2246 87.3631C17.3248 87.3631 10.8985 80.9361 10.8985 73.037V54.0526C10.8985 46.1535 17.3248 39.7265 25.2246 39.7265C33.1238 39.7265 39.5508 46.1535 39.5508 54.0526V73.037Z" fill="black"/>
<path id="Vector_26" d="M25.2246 41.4843C18.2943 41.4843 12.6563 47.1223 12.6563 54.0526V73.0369C12.6563 73.8856 12.7421 74.7144 12.9028 75.5164C12.9117 75.6565 12.942 75.7952 12.9955 75.927C14.3049 81.4682 19.2893 85.6053 25.2246 85.6053C31.16 85.6053 36.1443 81.4682 37.4538 75.927C37.5073 75.7952 37.5369 75.6558 37.5465 75.5164C37.7071 74.7144 37.793 73.8856 37.793 73.0369V66.6587C37.793 65.9308 37.2032 65.3403 36.4746 65.3403C35.7468 65.3403 35.1563 65.9308 35.1563 66.6587V72.491L31.8164 69.1512V59.6961L35.1563 56.3563V61.3859C35.1563 62.1138 35.7468 62.7043 36.4746 62.7043C37.2032 62.7043 37.793 62.1138 37.793 61.3859V54.0526C37.793 47.1223 32.1549 41.4843 25.2246 41.4843ZM35.0643 52.7191L30.4981 57.286L26.543 53.3309V44.2109C30.9616 44.8001 34.4689 48.3033 35.0643 52.7191ZM25.2246 73.1063L21.2696 69.1512V59.6961L25.2246 55.741L29.1797 59.6961V69.1512L25.2246 73.1063ZM15.293 56.3563L18.6329 59.6961V69.1512L15.293 72.491V56.3563ZM23.9063 44.2109V53.3309L19.9512 57.286L15.385 52.7191C15.9804 48.3033 19.4877 44.8001 23.9063 44.2109ZM15.6927 75.8199L19.9512 71.5613L23.9063 75.5164V82.8786C19.9842 82.3554 16.7796 79.5367 15.6927 75.8199ZM26.543 82.8786V75.5164L30.4981 71.5613L34.7566 75.8199C33.6697 79.5367 30.4651 82.3554 26.543 82.8786Z" fill="black"/>
<path id="Vector_27" d="M69.2578 37.692V34.381C69.7673 34.256 70.2259 33.9697 70.5638 33.5508C71.0273 32.9775 71.2037 32.2352 71.0479 31.5149L70.377 28.4037C70.1133 27.1836 69.4054 26.1447 68.4496 25.434C69.3841 24.4686 69.9609 23.155 69.9609 21.7089C69.9609 19.2075 68.2388 17.1009 65.9179 16.5117V6.76756C65.9179 6.03972 65.3274 5.44921 64.5996 5.44921H63.2812C62.506 5.44921 61.875 4.81818 61.875 4.04296C61.875 3.26774 62.506 2.63671 63.2812 2.63671H66.4672C67.3276 2.63671 68.0273 3.3364 68.0273 4.19677V9.05272C68.0273 9.78056 68.6171 10.3711 69.3457 10.3711C70.0735 10.3711 70.664 9.78056 70.664 9.05272V4.19677C70.664 1.88278 68.7812 0 66.4672 0H63.2812C61.0517 0 59.2383 1.81343 59.2383 4.04296C59.2383 6.27249 61.0517 8.08592 63.2812 8.08592V16.5124C60.9604 17.1009 59.2383 19.2075 59.2383 21.7089C59.2383 23.2326 59.8782 24.6093 60.9027 25.5864C60.0471 26.2895 59.4188 27.2694 59.1737 28.4037L58.5029 31.5149C58.347 32.2359 58.5235 32.9775 58.9869 33.5508C59.3248 33.9697 59.7835 34.256 60.2929 34.381V37.692C53.1079 39.6633 47.8125 46.2503 47.8125 54.0526V73.037C47.8125 82.3904 55.4219 89.9998 64.7754 89.9998C74.1288 89.9998 81.7382 82.3904 81.7382 73.037V54.0526C81.7382 46.2503 76.4428 39.6626 69.2578 37.692ZM64.5996 18.9843C66.102 18.9843 67.3242 20.2066 67.3242 21.7089C67.3242 23.2113 66.102 24.4335 64.5996 24.4335C63.0972 24.4335 61.875 23.2113 61.875 21.7089C61.875 20.2066 63.0972 18.9843 64.5996 18.9843ZM65.4579 27.0703C66.5785 27.0703 67.5631 27.8654 67.7993 28.9599L68.4153 31.8163H61.1348L61.7514 28.9606C61.9876 27.8654 62.9722 27.0703 64.0928 27.0703H65.4579ZM62.9297 34.4531H66.6211V37.1907C66.0147 37.1248 65.3988 37.0898 64.7754 37.0898C64.1519 37.0898 63.536 37.1248 62.9297 37.1907V34.4531ZM79.1015 73.037C79.1015 80.9361 72.6745 87.3631 64.7754 87.3631C56.8755 87.3631 50.4492 80.9361 50.4492 73.037V54.0526C50.4492 46.1535 56.8755 39.7265 64.7754 39.7265C72.6745 39.7265 79.1015 46.1535 79.1015 54.0526V73.037Z" fill="black"/>
<path id="Vector_28" d="M64.7754 41.4843C62.425 41.4843 60.1288 42.1421 58.1355 43.3876C57.5182 43.7735 57.3301 44.5865 57.716 45.2038C58.1019 45.8218 58.9148 46.0092 59.5328 45.624C60.731 44.8749 62.0679 44.3963 63.457 44.2095V53.3302L59.5019 57.2853L54.9337 52.7178C55.115 51.3857 55.5654 50.1003 56.263 48.9433C56.6386 48.3198 56.4381 47.5096 55.8146 47.134C55.1912 46.7584 54.3809 46.9589 54.0047 47.5823C52.8284 49.5331 52.207 51.7709 52.207 54.0526V73.0369C52.207 73.8856 52.2928 74.7144 52.4535 75.5164C52.4624 75.6565 52.4927 75.7952 52.5462 75.927C53.8556 81.4682 58.84 85.6053 64.7754 85.6053C70.7107 85.6053 75.6951 81.4682 77.0045 75.927C77.058 75.7952 77.0876 75.6558 77.0972 75.5164C77.2579 74.7144 77.3437 73.8856 77.3437 73.0369V54.0526C77.3437 47.1223 71.7057 41.4843 64.7754 41.4843ZM74.615 52.7191L70.0488 57.286L66.0937 53.3309V44.2109C70.5123 44.8001 74.0196 48.3033 74.615 52.7191ZM74.707 72.491L71.3671 69.1512V59.6961L74.707 56.3563V72.491ZM64.7754 73.1063L60.8203 69.1512V59.6961L64.7754 55.741L68.7304 59.6961V69.1512L64.7754 73.1063ZM54.8437 56.3563L58.1836 59.6961V69.1512L54.8437 72.491V56.3563ZM55.2434 75.8199L59.5019 71.5613L63.457 75.5164V82.8786C59.5349 82.3554 56.3303 79.5367 55.2434 75.8199ZM66.0937 82.8786V75.5164L70.0488 71.5613L74.3073 75.8199C73.2204 79.5367 70.0158 82.3554 66.0937 82.8786Z" fill="black"/>
</g>
<defs>
<clipPath id="clip0_48_7253">
<rect width="90" height="90" fill="white"/>
</clipPath>
</defs>
</svg>
