<svg width="90" height="90" viewBox="0 0 90 90" fill="none" xmlns="http://www.w3.org/2000/svg">
<g id="hand-mirror_1005757" clip-path="url(#clip0_48_7390)">
<g id="Group">
<g id="Group_2">
<path id="Vector" d="M60.6931 1.31836C46.7342 1.31836 35.3776 13.8699 35.3776 29.2979C35.3776 41.197 42.1336 51.3835 51.6281 55.4213C53.9461 56.4071 55.4991 58.6395 55.6668 61.1528C56.0365 66.6983 55.6229 70.5637 53.6549 79.9693C53.4685 80.8407 53.4358 81.7684 53.6021 82.7287C54.1514 85.8994 56.798 88.3501 60.0021 88.6486C64.2885 89.048 67.8916 85.6858 67.8916 81.4822C67.8916 80.9628 67.8354 80.4567 67.7308 79.9686C65.7629 70.5637 65.3493 66.6981 65.719 61.1528C65.8865 58.6393 67.4395 56.4071 69.7577 55.4211C79.2523 51.3833 86.0082 41.197 86.0082 29.2978C86.0086 13.8699 74.6521 1.31836 60.6931 1.31836ZM60.6931 84.2151C59.1838 84.2151 57.9602 82.9915 57.9602 81.4822C57.9602 79.973 59.1838 78.7494 60.6931 78.7494C62.2023 78.7494 63.4259 79.973 63.4259 81.4822C63.4259 82.9915 62.2025 84.2151 60.6931 84.2151Z" fill="#78BAF6"/>
<g id="Group_3">
<path id="Vector_2" d="M60.6931 1.31836C60.0276 1.31836 59.3682 1.34736 58.7156 1.40326C71.7539 2.52192 82.0535 14.6054 82.0535 29.2979C82.0535 41.197 75.2976 51.3835 65.803 55.4213C63.485 56.4071 61.9318 58.6395 61.7643 61.153C61.3946 66.6983 61.8082 70.5639 63.7761 79.9688C63.8805 80.4569 63.9369 80.963 63.9369 81.4824C63.9369 84.7723 61.7299 87.5463 58.7158 88.4055C59.1316 88.5243 59.5614 88.6077 60.0023 88.6486C64.2887 89.048 67.8918 85.686 67.8918 81.4822C67.8918 80.9628 67.8356 80.4567 67.731 79.9686C65.7631 70.5637 65.3495 66.6981 65.7192 61.1528C65.8867 58.6393 67.4397 56.4071 69.7579 55.4211C79.2525 51.3833 86.0084 41.197 86.0084 29.2978C86.0086 13.8699 74.6521 1.31836 60.6931 1.31836Z" fill="#1885DA"/>
</g>
<path id="Vector_3" d="M60.6931 51.738C71.6151 51.738 80.4691 41.6913 80.4691 29.298C80.4691 16.9047 71.6151 6.85791 60.6931 6.85791C49.7712 6.85791 40.9172 16.9047 40.9172 29.298C40.9172 41.6913 49.7712 51.738 60.6931 51.738Z" fill="#B6FFF8"/>
</g>
<g id="Group_4">
<path id="Vector_4" d="M14.3588 44.3502V9.18929C14.3588 7.91523 15.3915 6.88253 16.6655 6.88253H24.8996C26.0096 6.88253 26.9095 5.98271 26.9095 4.87266C26.9095 3.76261 26.0096 2.86279 24.8996 2.86279H9.81908C6.60055 2.86279 3.99127 5.47189 3.99127 8.6906V50.6768V83.9279C3.99127 85.7001 5.42792 87.1366 7.19996 87.1366C8.97217 87.1366 10.4086 85.6999 10.4086 83.9279V57.8815C10.4086 53.9024 13.6344 50.6767 17.6135 50.6767H24.8992C26.0093 50.6767 26.9091 49.7769 26.9091 48.6668C26.9091 47.5568 26.0093 46.6569 24.8992 46.6569H16.6655C15.3915 46.6569 14.3588 45.6241 14.3588 44.3502Z" fill="#606572"/>
</g>
<g id="Group_5">
<path id="Vector_5" d="M60.6931 0C54.0115 0 47.6177 2.74252 42.6899 7.72236C42.1777 8.23986 42.1821 9.07464 42.6997 9.58668C43.2174 10.0987 44.052 10.0945 44.5641 9.57684C48.993 5.10148 54.721 2.6367 60.6931 2.6367C73.9251 2.6367 84.6902 14.5969 84.6902 29.2979C84.6902 34.8083 83.1826 40.1003 80.3302 44.602C77.5551 48.9818 73.7208 52.3035 69.242 54.208C66.4608 55.3907 64.6068 58.0183 64.4038 61.065C64.0247 66.7515 64.4435 70.6937 66.4418 80.2444C66.5292 80.6524 66.5735 81.0688 66.5735 81.4822C66.5735 83.1328 65.8732 84.7176 64.652 85.8301C63.4143 86.9578 61.8061 87.493 60.1244 87.3357C57.4997 87.0912 55.3518 85.104 54.9013 82.5033C54.7705 81.7489 54.785 80.989 54.9454 80.2391C56.9427 70.6934 57.3615 66.751 56.9824 61.0649C56.7794 58.0181 54.9254 55.3905 52.1442 54.2079C47.6653 52.3031 43.8312 48.9814 41.0562 44.6019C38.2038 40.1001 36.6962 34.8081 36.6962 29.2978C36.6962 23.6194 38.2889 18.1951 41.3023 13.6113C41.7022 13.003 41.5333 12.1854 40.9249 11.7855C40.3165 11.386 39.499 11.5545 39.0991 12.1629C35.8021 17.1781 34.0596 23.1033 34.0596 29.2978C34.0596 35.3086 35.709 41.0885 38.8291 46.013C41.8917 50.8466 46.1392 54.5194 51.1126 56.6343C52.9458 57.4139 54.2172 59.2218 54.3517 61.2405C54.7117 66.6397 54.3031 70.435 52.3661 79.6935C52.136 80.7687 52.115 81.8656 52.3035 82.9537C52.957 86.7249 56.0725 89.6066 59.8801 89.9613C60.1571 89.987 60.4326 90 60.7063 90C62.833 90 64.8397 89.2266 66.4281 87.7794C68.1963 86.1683 69.2103 83.8732 69.2103 81.4824C69.2103 80.884 69.1464 80.2818 69.0215 79.6988C67.0834 70.4353 66.6749 66.6401 67.0349 61.2407C67.1695 59.2222 68.4409 57.4141 70.274 56.6345C75.2473 54.5195 79.495 50.8468 82.5575 46.0132C85.6777 41.0887 87.3271 35.3087 87.3271 29.2979C87.3269 13.1431 75.3792 0 60.6931 0Z" fill="black"/>
<path id="Vector_6" d="M56.6419 81.4823C56.6419 83.7161 58.4593 85.5335 60.6931 85.5335C62.927 85.5335 64.7444 83.7161 64.7444 81.4823C64.7444 79.2484 62.927 77.431 60.6931 77.431C58.4593 77.431 56.6419 79.2484 56.6419 81.4823ZM62.1076 81.4823C62.1076 82.2622 61.4731 82.8968 60.6931 82.8968C59.9132 82.8968 59.2786 82.2622 59.2786 81.4823C59.2786 80.7023 59.9132 80.0677 60.6931 80.0677C61.4731 80.0677 62.1076 80.7023 62.1076 81.4823Z" fill="black"/>
<path id="Vector_7" d="M75.7332 43.9339C76.3387 44.3382 77.1574 44.1753 77.5616 43.5697C80.3261 39.4296 81.7874 34.4945 81.7874 29.2981C81.7874 16.1976 72.3246 5.53955 60.6931 5.53955C49.0616 5.53955 39.5988 16.1974 39.5988 29.298C39.5988 42.3985 49.0616 53.0565 60.6931 53.0565C65.5096 53.0565 70.0437 51.278 73.8051 47.9134C74.3477 47.4281 74.3943 46.5945 73.9088 46.0519C73.4233 45.5091 72.5899 45.4625 72.0473 45.9484C68.777 48.8737 64.8508 50.4198 60.6931 50.4198C50.5156 50.4198 42.2355 40.9446 42.2355 29.298C42.2355 17.6513 50.5156 8.17625 60.6931 8.17625C70.8706 8.17625 79.1507 17.6515 79.1507 29.2981C79.1507 33.9716 77.8431 38.4004 75.3688 42.1055C74.9645 42.7108 75.1276 43.5294 75.7332 43.9339Z" fill="black"/>
<path id="Vector_8" d="M16.6655 8.20087H24.8996C26.7347 8.20087 28.2278 6.70779 28.2278 4.87265C28.2278 3.03751 26.7347 1.54443 24.8996 1.54443H9.81907C5.87861 1.54443 2.67291 4.75013 2.67291 8.69059V62.7091C2.67291 63.4372 3.26318 64.0275 3.99126 64.0275C4.71934 64.0275 5.30961 63.4372 5.30961 62.7091V8.69041C5.30961 6.20383 7.33249 4.18096 9.81907 4.18096H24.8996C25.2808 4.18096 25.5911 4.49121 25.5911 4.87247C25.5911 5.25374 25.2808 5.56399 24.8996 5.56399H16.6655C14.6665 5.56399 13.0404 7.19013 13.0404 9.1891V44.35C13.0404 46.349 14.6665 47.9751 16.6655 47.9751H24.8996C25.2808 47.9751 25.5911 48.2854 25.5911 48.6666C25.5911 49.0479 25.2808 49.3583 24.8996 49.3583H17.6139C12.9142 49.3583 9.09064 53.1817 9.09064 57.8815V83.9279C9.09064 84.9703 8.2425 85.8182 7.20012 85.8182C6.15775 85.8182 5.30979 84.9703 5.30979 83.9279V67.9824C5.30979 67.2543 4.71952 66.664 3.99144 66.664C3.26336 66.664 2.67309 67.2543 2.67309 67.9824V83.9279C2.67309 86.4241 4.70387 88.4549 7.20012 88.4549C9.69637 88.4549 11.7273 86.4241 11.7273 83.9279V57.8815C11.7273 54.6358 14.3679 51.995 17.6139 51.995H24.8996C26.7347 51.995 28.2278 50.5019 28.2278 48.6666C28.2278 46.8313 26.7347 45.3384 24.8996 45.3384H16.6655C16.1204 45.3384 15.6771 44.8951 15.6771 44.35V43.7439H26.2747C27.0028 43.7439 27.5931 43.1536 27.5931 42.4256C27.5931 41.6975 27.0028 41.1072 26.2747 41.1072H15.6771V38.5254H26.2747C27.0028 38.5254 27.5931 37.9351 27.5931 37.207C27.5931 36.4789 27.0028 35.8887 26.2747 35.8887H15.6771V33.3068H26.2747C27.0028 33.3068 27.5931 32.7165 27.5931 31.9885C27.5931 31.2604 27.0028 30.6701 26.2747 30.6701H15.6771V28.0883H26.2747C27.0028 28.0883 27.5931 27.498 27.5931 26.7699C27.5931 26.0418 27.0028 25.4516 26.2747 25.4516H15.6771V22.8697H26.2747C27.0028 22.8697 27.5931 22.2794 27.5931 21.5513C27.5931 20.8233 27.0028 20.233 26.2747 20.233H15.6771V17.6511H26.2747C27.0028 17.6511 27.5931 17.0609 27.5931 16.3328C27.5931 15.6047 27.0028 15.0144 26.2747 15.0144H15.6771V12.4322H26.2747C27.0028 12.4322 27.5931 11.842 27.5931 11.1139C27.5931 10.3858 27.0028 9.79554 26.2747 9.79554H15.6771V9.18928C15.6771 8.64418 16.1204 8.20087 16.6655 8.20087Z" fill="black"/>
</g>
</g>
</g>
<defs>
<clipPath id="clip0_48_7390">
<rect width="90" height="90" fill="white"/>
</clipPath>
</defs>
</svg>
