<svg width="90" height="90" viewBox="0 0 90 90" fill="none" xmlns="http://www.w3.org/2000/svg">
<g id="hoodie_1805017" clip-path="url(#clip0_48_7229)">
<path id="Vector" d="M22.5104 80.2267V87.2723C22.5104 88.0503 23.1407 88.6813 23.9194 88.6813H66.1918C66.9698 88.6813 67.6008 88.0503 67.6008 87.2723V80.2267H22.5104Z" fill="#95D6A4"/>
<path id="Vector_2" d="M35.192 80.2267H22.5104V87.2723C22.5104 88.0503 23.1407 88.6813 23.9194 88.6813H35.192V80.2267Z" fill="#78C2A4"/>
<path id="Vector_3" d="M80.8428 23.9639C80.4953 19.5295 77.8497 15.6019 73.8713 13.6127L63.3732 8.36401H26.7374L16.2393 13.6127C12.2616 15.6019 9.61593 19.5295 9.2678 23.9639L4.31093 87.1618C4.24707 87.9809 4.89458 88.6813 5.7158 88.6813H12.8335C13.5346 88.6813 14.1292 88.1656 14.2288 87.4714L21.1014 39.3632H69.0098L75.8825 87.4714C75.9813 88.1656 76.576 88.6813 77.277 88.6813H84.3948C85.216 88.6813 85.8635 87.9809 85.7996 87.1618L80.8428 23.9639Z" fill="#95D6A4"/>
<path id="Vector_4" d="M4.74489 81.6356L4.31093 87.1617C4.24707 87.9809 4.89458 88.6813 5.7158 88.6813H12.8335C13.5346 88.6813 14.1292 88.1656 14.2288 87.4714L15.0624 81.6356H4.74489Z" fill="#B3E59F"/>
<path id="Vector_5" d="M73.8713 13.6127L63.3732 8.36401H26.7374L16.2393 13.6127C14.1093 14.6777 12.3797 16.3092 11.1616 18.2654L17.7444 28.5053C19.9362 31.9145 21.1014 35.8819 21.1014 39.9352L23.1709 80.2267L67.6009 81.6357C68.3788 81.6357 69.0098 81.0046 69.0098 80.2267V39.9352C69.0098 35.8819 70.1751 31.9145 72.3668 28.5053L78.949 18.2654C77.7316 16.3092 76.0013 14.6777 73.8713 13.6127Z" fill="#B3E59F"/>
<path id="Vector_6" d="M47.4499 22.217L65.5993 9.73935C66.8524 8.8783 67.6008 7.45557 67.6008 5.93535C67.6008 3.38515 65.5334 1.31836 62.9838 1.31836H27.1267C24.5772 1.31836 22.5104 3.38515 22.5104 5.93535C22.5104 7.45557 23.2588 8.8783 24.5113 9.73935L42.6606 22.217C44.1032 23.2092 46.008 23.2092 47.4499 22.217Z" fill="#95D6A4"/>
<path id="Vector_7" d="M60.4632 13.2707C61.4032 12.6246 61.9642 11.5575 61.9642 10.417C61.9642 8.50471 60.4145 6.95496 58.5022 6.95496H31.6091C29.6968 6.95496 28.1464 8.50471 28.1464 10.417C28.1464 11.5575 28.708 12.6246 29.6474 13.2707L42.6606 22.217C44.1033 23.2085 46.008 23.2085 47.4506 22.217L60.4632 13.2707Z" fill="#78C2A4"/>
<path id="Vector_8" d="M75.8824 87.4714C75.9813 88.1656 76.5759 88.6813 77.277 88.6813H84.3947C85.2159 88.6813 85.8635 87.9809 85.7996 87.1617L85.3663 81.6356H75.0488L75.8824 87.4714Z" fill="#B3E59F"/>
<path id="Vector_9" d="M25.3284 64.7271V39.9345C25.3284 35.0614 23.9352 30.3187 21.2998 26.2195L14.7177 15.9795L14.6291 15.8422L14.5852 15.7742L14.5337 15.7111L14.43 15.5847C14.3448 15.481 14.2563 15.3829 14.167 15.2847L14.0235 15.1226L13.9974 15.0924C12.8816 15.996 11.9134 17.0576 11.1616 18.2661L17.7437 28.5053C19.9355 31.9145 21.1007 35.8819 21.1007 39.9351V80.2267C21.1007 81.0053 21.7317 81.6363 22.5097 81.6363H67.6002C68.3788 81.6363 69.0098 81.0053 69.0098 80.2267V77.4087H38.01C31.0172 77.4087 25.3284 71.7198 25.3284 64.7271Z" fill="#95D6A4"/>
<path id="Vector_10" d="M87.1139 87.0588L82.157 23.8608C81.7759 18.9953 78.8268 14.6166 74.4611 12.4337L67.951 9.17904C68.5724 8.22735 68.9192 7.10469 68.9192 5.93534C68.9192 2.6628 66.2564 0 62.9839 0H27.1267C23.8542 0 21.1914 2.6628 21.1914 5.93534C21.1914 7.10469 21.5381 8.22735 22.1595 9.17904L15.6495 12.4337C11.2845 14.6166 8.33534 18.9953 7.95356 23.8608L2.99669 87.0588C2.93764 87.8147 3.19856 88.5673 3.71355 89.1242C4.22853 89.6804 4.95774 89.9996 5.7158 89.9996H12.8335C14.1821 89.9996 15.3432 88.993 15.5334 87.6582L19.7824 57.9142V73.1817C19.7824 73.9102 20.3729 74.5001 21.1007 74.5001C21.8292 74.5001 22.4191 73.9102 22.4191 73.1817V39.8823C22.4191 35.6045 21.2051 31.4359 18.9089 27.8269L12.7841 18.2022C13.834 16.7822 15.2107 15.6005 16.8291 14.7917L24.1837 11.114L38.1006 20.6817V47.8178C38.1006 48.5456 38.6911 49.1362 39.419 49.1362C40.1468 49.1362 40.7373 48.5456 40.7373 47.8178V22.4951L41.9135 23.3033C42.8529 23.9494 43.9542 24.2721 45.0549 24.2721C46.1563 24.2721 47.2577 23.9494 48.197 23.3033L49.3732 22.4944V47.8178C49.3732 48.5456 49.9637 49.1362 50.6916 49.1362C51.4194 49.1362 52.0099 48.5456 52.0099 47.8178V20.6824L65.9268 11.1147L73.2814 14.7917C74.8999 15.6012 76.2766 16.7822 77.3265 18.2029L75.4162 21.2042C75.0255 21.8188 75.2068 22.6338 75.8206 23.0245C76.0404 23.1639 76.2848 23.2305 76.5272 23.2305C76.9632 23.2305 77.3896 23.0149 77.6409 22.6201L78.7808 20.8286C79.1838 21.8552 79.4406 22.9449 79.5285 24.0668L83.9402 80.318H76.1921L70.3378 39.3371C70.4353 35.7535 71.4969 32.2743 73.4263 29.2427L74.6053 27.3895C74.996 26.7749 74.8147 25.9606 74.2009 25.5692C73.5863 25.1785 72.7719 25.3598 72.3806 25.9736L71.2016 27.8269C68.9048 31.4359 67.6915 35.6045 67.6915 39.8823V80.2273C67.6915 80.2775 67.6503 80.318 67.6002 80.318H22.5104C22.4603 80.318 22.4198 80.2775 22.4198 80.2273V78.8177C22.4198 78.0898 21.8292 77.4993 21.1014 77.4993C20.3729 77.4993 19.783 78.0898 19.783 78.8177V80.2273C19.783 81.2532 20.3523 82.1472 21.192 82.6134V87.2723C21.192 88.7767 22.4156 90.0003 23.9194 90.0003H66.1919C67.6956 90.0003 68.9192 88.7767 68.9192 87.2723V82.6134C69.7583 82.1472 70.3282 81.2532 70.3282 80.2273V57.9142L74.5771 87.6582C74.768 88.993 75.9285 89.9996 77.277 89.9996H84.3948C85.1528 89.9996 85.8827 89.6804 86.397 89.1242C86.912 88.5673 87.1729 87.8147 87.1139 87.0588ZM12.8335 87.3629H5.7158C5.70481 87.3629 5.67666 87.3629 5.64919 87.3341C5.62241 87.3046 5.62447 87.2757 5.62585 87.2647L5.96367 82.954H13.5421L12.9235 87.2853C12.9166 87.3293 12.8782 87.3629 12.8335 87.3629ZM16.6842 29.2421C18.6137 32.2743 19.6752 35.7535 19.7727 39.3371L13.9184 80.3173H6.17035L10.582 24.0668C10.6699 22.9449 10.9267 21.8545 11.3298 20.8279L16.6842 29.2421ZM46.7036 21.1307C45.7175 21.8085 44.393 21.8085 43.4077 21.1307L30.3944 12.1845C30.3944 12.1845 30.3944 12.1845 30.3944 12.1838C29.8122 11.7842 29.4647 11.1236 29.4647 10.4171C29.4647 9.23466 30.4267 8.27267 31.6091 8.27267H58.5015C59.6839 8.27267 60.6458 9.23466 60.6458 10.4171C60.6458 11.1236 60.2984 11.7835 59.7161 12.1838C59.7161 12.1838 59.7161 12.1845 59.7154 12.1845L46.7036 21.1307ZM63.2365 9.76406C62.9173 7.43565 60.9164 5.63596 58.5015 5.63596H31.6091C29.1949 5.63596 27.1933 7.43565 26.874 9.76406L25.2583 8.65307C24.363 8.03784 23.8287 7.02161 23.8287 5.93534C23.8287 4.11642 25.3085 2.63671 27.1267 2.63671H62.9839C64.8028 2.63671 66.2825 4.11642 66.2825 5.93534C66.2825 7.02161 65.7476 8.03784 64.8529 8.65307L63.2365 9.76406ZM66.1919 87.3629H23.9194C23.8693 87.3629 23.8281 87.3224 23.8281 87.2723V82.9547H66.2825V87.2723C66.2825 87.3224 66.2413 87.3629 66.1919 87.3629ZM84.4614 87.3341C84.4346 87.3629 84.4057 87.3629 84.3948 87.3629H77.277C77.2324 87.3629 77.1939 87.3293 77.1871 87.2853L76.5684 82.954H84.1469L84.4854 87.2647C84.4861 87.2757 84.4881 87.3046 84.4614 87.3341Z" fill="black"/>
</g>
<defs>
<clipPath id="clip0_48_7229">
<rect width="90" height="90" fill="white"/>
</clipPath>
</defs>
</svg>
