<svg width="90" height="90" viewBox="0 0 90 90" fill="none" xmlns="http://www.w3.org/2000/svg">
<g id="jacket_685074" clip-path="url(#clip0_48_7314)">
<path id="Vector" d="M17.7123 79.3845V86.195C17.7123 87.4708 18.7466 88.5051 20.0224 88.5051H69.837C71.1128 88.5051 72.1473 87.4708 72.1473 86.195V79.3845H17.7123Z" fill="#585A60"/>
<path id="Vector_2" d="M21.2291 86.1953V79.3848H17.7123V86.1953C17.7123 87.4711 18.7466 88.5054 20.0224 88.5054H23.5393C22.2634 88.5055 21.2291 87.4711 21.2291 86.1953Z" fill="#424449"/>
<path id="Vector_3" d="M60.0004 79.385H30.0036V88.5058H60.0004V79.385Z" fill="#DDDDDD"/>
<g id="Group">
<path id="Vector_4" d="M66.119 79.385H60.0004V88.5058H66.119V79.385Z" fill="#75777C"/>
<path id="Vector_5" d="M30.0031 79.385H23.8845V88.5058H30.0031V79.385Z" fill="#75777C"/>
</g>
<path id="Vector_6" d="M75.0874 40.083L74.3407 39.1911C71.1982 35.4382 69.4761 30.6991 69.4761 25.8041V12.6423C69.4761 10.818 67.9972 9.33934 66.1732 9.33934H61.1375L57.1308 3.27505C57.1308 3.27505 51.9327 1.32581 45.0022 1.32581C38.0715 1.32581 32.8736 3.27505 32.8736 3.27505L28.8667 9.33951H23.8311C22.0068 9.33951 20.5281 10.8184 20.5281 12.6424V25.8046C20.5281 30.6994 18.8062 35.4383 15.6637 39.1913C14.8393 40.1758 12.7043 42.3414 12.9904 46.0879L15.3688 77.2276C15.4693 78.544 16.5667 79.5606 17.8868 79.5606C18.5044 79.5606 72.4306 79.5606 71.8223 79.5606C73.3094 79.5606 74.5455 78.4153 74.6587 76.9324L77.0145 46.0877C77.1799 43.9115 76.4887 41.7564 75.0874 40.083Z" fill="#A56F4A"/>
<g id="Group_2">
<path id="Vector_7" d="M18.8851 77.2274L16.5068 46.0877C16.2275 42.4304 18.2245 40.3322 19.1801 39.1911C22.3225 35.4381 24.0445 30.6994 24.0445 25.8044V12.6422C24.0445 10.818 25.5233 9.33948 27.3474 9.33948H23.8305C22.0063 9.33948 20.5276 10.8183 20.5276 12.6422V25.8044C20.5276 30.6992 18.8056 35.4381 15.6632 39.1911C14.839 40.1753 12.7037 42.3412 12.9899 46.0877L15.3682 77.2274C15.4688 78.5438 16.5662 79.5604 17.8863 79.5604H21.4032C20.083 79.5604 18.9856 78.5436 18.8851 77.2274Z" fill="#93603E"/>
<path id="Vector_8" d="M57.1308 3.27505C57.1308 3.27505 51.9327 1.32581 45.0022 1.32581C38.0715 1.32581 32.8736 3.27505 32.8736 3.27505L28.8667 9.33951C28.8667 9.33951 30.2745 22.3345 45.0022 31.7559C59.7299 22.3345 61.1377 9.33951 61.1377 9.33951L57.1308 3.27505Z" fill="#93603E"/>
</g>
<path id="Vector_9" d="M35.4884 72.365H24.3561C23.1956 72.365 22.246 71.4154 22.246 70.2549V57.2206C22.246 56.06 23.1956 55.1105 24.3561 55.1105H35.4884C36.6489 55.1105 37.5985 56.06 37.5985 57.2206V70.2549C37.5985 71.4156 36.6489 72.365 35.4884 72.365Z" fill="#E2926F"/>
<path id="Vector_10" d="M25.7629 70.2549V57.2206C25.7629 56.06 26.7125 55.1105 27.873 55.1105H24.3563C23.1958 55.1105 22.2462 56.06 22.2462 57.2206V70.2549C22.2462 71.4154 23.1958 72.365 24.3563 72.365H27.8732C26.7125 72.365 25.7629 71.4156 25.7629 70.2549Z" fill="#CC7C60"/>
<path id="Vector_11" d="M35.153 55.1105H24.6915C23.3464 55.1105 22.2459 56.211 22.2459 57.5561V62.1076H37.5985V57.5561C37.5985 56.211 36.4981 55.1105 35.153 55.1105Z" fill="#FFC299"/>
<path id="Vector_12" d="M27.873 55.1107H24.6913C23.3466 55.1109 22.2462 56.2111 22.246 57.5558V62.1077H25.7629V57.221C25.7629 56.0603 26.7125 55.1107 27.873 55.1107Z" fill="#EFAD81"/>
<path id="Vector_13" d="M57.1308 3.27505C57.1308 3.27505 51.9327 1.32581 45.0022 1.32581C38.0715 1.32581 32.8736 3.27505 32.8736 3.27505C32.8736 3.27505 32.2239 13.8877 45.0022 24.5003C57.7805 13.8875 57.1308 3.27505 57.1308 3.27505Z" fill="#585A60"/>
<path id="Vector_14" d="M36.8911 7.41531C36.3272 5.08269 37.8092 2.73741 40.1549 2.23046C41.9079 1.85147 44.175 1.48708 46.7504 1.36737C41.5254 1.12479 35.9816 2.10917 32.8733 3.27495C32.8733 3.27495 32.2236 13.8876 45.0019 24.5002C45.6152 23.9908 46.197 23.4814 46.7502 22.973C40.2331 16.9838 37.7959 11.1577 36.8911 7.41531Z" fill="#424449"/>
<path id="Vector_15" d="M65.5034 72.365H54.3712C53.2107 72.365 52.2611 71.4154 52.2611 70.2549V57.2206C52.2611 56.06 53.2107 55.1105 54.3712 55.1105H65.5034C66.6639 55.1105 67.6135 56.06 67.6135 57.2206V70.2549C67.6135 71.4156 66.6639 72.365 65.5034 72.365Z" fill="#E2926F"/>
<path id="Vector_16" d="M55.7778 70.2549V57.2206C55.7778 56.06 56.7274 55.1105 57.8879 55.1105H54.371C53.2105 55.1105 52.2609 56.06 52.2609 57.2206V70.2549C52.2609 71.4154 53.2105 72.365 54.371 72.365H57.8879C56.7274 72.365 55.7778 71.4156 55.7778 70.2549Z" fill="#CC7C60"/>
<path id="Vector_17" d="M65.168 55.1105H54.7066C53.3615 55.1105 52.2609 56.211 52.2609 57.5561V62.1076H67.6133V57.5561C67.6135 56.211 66.5131 55.1105 65.168 55.1105Z" fill="#FFC299"/>
<path id="Vector_18" d="M57.8879 55.1107H54.7062C53.3615 55.1109 52.2611 56.2111 52.2609 57.5558V62.1077H55.7778V57.221C55.7778 56.0603 56.7274 55.1107 57.8879 55.1107Z" fill="#EFAD81"/>
<path id="Vector_19" d="M65.5026 53.7917C64.2093 53.7917 55.6597 53.7917 54.3701 53.7917C52.4794 53.7917 50.9412 55.33 50.9412 57.2207C50.9412 58.4104 50.9412 69.0695 50.9412 70.2551C50.9412 72.1458 52.4794 73.6841 54.3701 73.6841H65.5026C67.3933 73.6841 68.9315 72.1458 68.9315 70.2551C68.9315 69.0695 68.9315 58.4104 68.9315 57.2207C68.9314 55.33 67.3931 53.7917 65.5026 53.7917ZM65.167 56.4293C65.7882 56.4293 66.2937 56.9347 66.2937 57.5559V60.7886H53.5788V57.5561C53.5788 56.9349 54.0843 56.4295 54.7055 56.4295H65.167V56.4293ZM65.5026 71.0463H54.3701C53.9412 71.0463 53.5789 70.6838 53.5789 70.2549V63.4262H66.2939V70.2549C66.2937 70.684 65.9316 71.0463 65.5026 71.0463Z" fill="black"/>
<path id="Vector_20" d="M35.4875 53.7917C34.1459 53.7917 26.1182 53.7917 24.3552 53.7917C22.4644 53.7917 20.9263 55.33 20.9263 57.2207C20.9263 62.2992 20.9263 65.7011 20.9263 70.2551C20.9263 72.1458 22.4644 73.6841 24.3552 73.6841H35.4875C37.3782 73.6841 38.9165 72.1458 38.9165 70.2551C38.9165 69.0695 38.9165 58.4104 38.9165 57.2207C38.9165 55.33 37.3782 53.7917 35.4875 53.7917ZM35.1521 56.4293C35.7733 56.4293 36.2787 56.9347 36.2787 57.5559V60.7886H23.5639V57.5561C23.5639 56.9349 24.0692 56.4295 24.6905 56.4295H35.1521V56.4293ZM35.4875 71.0463H24.3552C23.9263 71.0463 23.5639 70.6838 23.5639 70.2549V63.4262H36.2787V70.2549C36.2787 70.684 35.9164 71.0463 35.4875 71.0463Z" fill="black"/>
<path id="Vector_21" d="M75.1974 52.539C75.1421 53.2652 75.6858 53.8991 76.4119 53.9546C77.1407 54.0117 77.7719 53.4663 77.8275 52.7401L78.3279 46.1879C78.5213 43.6536 77.7292 41.1848 76.0974 39.2366L75.3507 38.3447C72.4122 34.835 70.7939 30.3816 70.7939 25.8044V12.6422C70.7939 10.0939 68.7206 8.02059 66.1721 8.02059H61.8461C58.1716 2.45904 58.2284 2.5188 58.0853 2.36816C57.8429 2.11275 57.6282 2.03224 56.7551 1.75767C50.5079 -0.208095 44.4292 0.00706148 45.001 0.00706148C39.8281 0.00706148 32.4906 1.46025 31.772 2.54798L28.1562 8.02077H23.83C21.2815 8.02077 19.2082 10.0941 19.2082 12.6424V25.8046C19.2082 30.3818 17.5898 34.8352 14.6512 38.3449C13.6579 39.531 11.3513 41.9582 11.6742 46.1882L14.2306 79.6609C14.283 80.3482 14.8562 80.8792 15.5456 80.8792H16.3927V86.3712C16.3927 88.3723 18.0206 90.0002 20.0217 90.0002C20.2576 90.0002 41.2004 90.0002 41.8517 90.0002C42.5799 90.0002 43.1706 89.4098 43.1706 88.6813C43.1706 87.9529 42.5801 87.3624 41.8517 87.3624H31.3215V80.8794H58.6808V87.3624H48.006C47.2775 87.3624 46.6871 87.9527 46.6871 88.6813C46.6871 89.4096 47.2773 90.0002 48.006 90.0002C49.1027 90.0002 69.0221 90.0002 69.8359 90.0002C71.837 90.0002 73.4651 88.3723 73.4651 86.3712V80.8792H74.4567C75.1461 80.8792 75.7192 80.3482 75.7719 79.6609L77.3578 58.8944C77.4132 58.1683 76.8695 57.5344 76.1433 57.4789C75.4163 57.4256 74.7835 57.9672 74.7277 58.6933L73.235 78.2415C71.7929 78.2415 47.6788 78.2415 46.3202 78.2415V32.4694C55.3796 26.4662 60.7014 18.0579 62.2467 10.658H66.1725C67.2665 10.658 68.1567 11.5482 68.1567 12.6421V25.8042C68.1567 30.9995 69.9936 36.0544 73.3289 40.0376C74.1485 41.0166 75.941 42.8094 75.6984 45.987L75.1974 52.539ZM31.9513 7.061C32.8175 11.2114 35.5005 18.1414 43.6823 25.1127V29.2606C35.8596 23.5818 31.3645 15.9042 30.2462 9.64183L31.9513 7.061ZM45.0011 22.7685C39.5783 18.0357 34.7021 11.2137 34.2127 4.22143C41.3767 2.0405 49.241 2.23158 55.791 4.22336C55.6147 6.79012 54.288 14.6694 45.0011 22.7685ZM19.0301 86.371V80.8791H22.5651V87.3621H20.0215C19.4748 87.3624 19.0301 86.9175 19.0301 86.371ZM28.6837 87.3624H25.2027V80.8794H28.6837V87.3624ZM70.8273 86.371C70.8273 86.9175 70.3826 87.3624 69.8357 87.3624H67.4367V80.8794H70.8273V86.371ZM64.7991 80.8792V87.3623H61.3181V80.8792H64.7991ZM16.7675 78.2416L14.3041 45.9871C14.0643 42.8457 15.8022 41.0784 16.6736 40.0378C20.0089 36.0544 21.8458 30.9996 21.8458 25.8044V12.6422C21.8458 11.5482 22.7359 10.6582 23.83 10.6582H27.7559C29.3044 18.072 34.6255 26.468 43.6826 32.4697V78.2418C40.3879 78.2416 19.4133 78.2416 16.7675 78.2416ZM46.3199 29.261V25.1127C54.5016 18.1416 57.1844 11.2116 58.0506 7.061L59.7561 9.64235C59.3695 11.8096 57.0911 21.4505 46.3199 29.261Z" fill="black"/>
</g>
<defs>
<clipPath id="clip0_48_7314">
<rect width="90" height="90" fill="white"/>
</clipPath>
</defs>
</svg>
