<svg width="90" height="90" viewBox="0 0 90 90" fill="none" xmlns="http://www.w3.org/2000/svg">
<g id="running-shoe_933757" clip-path="url(#clip0_48_7282)">
<path id="Vector" d="M64.0013 43.0434C53.5663 37.5384 44.001 30.4117 35.7391 21.9897C32.9866 19.6465 30.6605 25.2557 30.076 27.0467C29.4599 28.935 29.16 31.0533 29.4706 33.0326L62.4876 43.8629L64.0013 43.0434Z" fill="#E07F65"/>
<path id="Vector_2" d="M88.0859 54.2349C88.0859 49.9952 85.741 46.1417 81.3823 45.2085C72.7465 44.3642 64.2175 43.6138 55.919 40.844C50.2859 38.9639 44.9826 36.3711 39.9168 33.2874C38.6205 32.4983 37.3461 31.6375 36.0135 30.9111C35.0232 30.3713 33.9463 30.1525 32.8416 30.4831C31.5919 30.8568 30.8612 31.9069 29.8941 32.7002C25.0676 36.6595 17.8413 36.4219 13.2725 32.1755C12.5144 31.2972 11.7236 29.9967 10.3662 30.3108C9.11355 30.6007 8.93303 31.8366 8.64879 32.8809C7.76689 36.1211 6.78076 39.3209 6.60797 42.6999C6.4067 46.6309 6.57193 50.5983 6.57193 54.5344C6.57193 57.0263 6.57193 59.5183 6.57193 62.0104L84.0166 60.6377L88.0859 54.2349Z" fill="#F49E73"/>
<g id="Group">
<path id="Vector_3" d="M87.3664 55.3666L88.0859 54.2346V53.4961C88.0859 52.9751 88.0374 52.4638 87.9462 51.9659L80.6094 60.6982L82.9215 60.6573L87.3664 55.3666Z" fill="#EF9067"/>
<path id="Vector_4" d="M16.1487 53.5816V44.056C16.1487 41.7032 16.4617 39.3609 17.0798 37.0907L17.6913 34.8445C16.0972 34.2856 14.5891 33.3991 13.2729 32.1758L12.178 30.907C11.2092 29.7845 9.37916 30.1995 8.98998 31.63L7.5034 37.0905C6.88536 39.3607 6.57229 41.7032 6.57229 44.0558V53.5814V62.0107L16.1489 61.8408V53.5816H16.1487Z" fill="#EF9067"/>
</g>
<path id="Vector_5" d="M21.8268 52.9235V51.0691C21.8268 48.0295 19.3616 45.5654 16.3208 45.5654H6.57211V53.5814V55.1021L21.8266 55.7743L21.8268 52.9235Z" fill="#F2EDEC"/>
<path id="Vector_6" d="M16.1485 55.1023V53.5816V45.5653H6.57211V53.5816V55.1023L21.8268 55.7743V55.3713L16.1485 55.1023Z" fill="#E4DAD8"/>
<path id="Vector_7" d="M83.8536 57.2043C71.9249 61.1001 59.0428 62.5389 46.8348 59.0795C41.1694 57.4741 35.7103 55.2607 29.9294 54.0539C22.7389 52.5531 15.2921 52.396 8.01703 53.3512C6.72627 53.5208 5.76175 53.6228 5.08816 54.811C4.66242 55.5622 4.28941 56.3477 3.89144 57.114C3.0433 58.7461 2.19498 60.3784 1.34683 62.0105C1.37355 65.6381 4.2975 68.4123 7.86076 68.5188C9.04306 68.5541 10.2317 68.5188 11.4144 68.5188C16.1907 68.5188 20.9674 68.5188 25.7437 68.5188C26.3456 68.5188 26.9995 68.5907 27.5982 68.5188C27.9995 68.4706 28.3697 68.4264 28.6474 68.0709C29.157 67.4186 28.852 66.0183 30.2092 66.2934C32.4221 66.6787 34.6351 67.0642 36.848 67.4495C38.9825 67.8211 41.2001 68.4265 43.3714 68.5188C47.9522 68.7138 52.5829 68.5188 57.167 68.5188C59.9173 68.5188 62.6676 68.5188 65.4179 68.5188C67.0236 68.5188 68.5362 68.5469 70.1077 68.0968C74.8229 66.7462 79.5647 65.4066 84.2353 63.9097C86.0607 63.3245 87.5482 62.1385 88.2647 60.3193C88.8502 58.8324 88.682 57.1396 88.682 55.5694C88.682 54.733 88.6832 53.9485 87.5888 54.0612C86.4689 54.1765 85.2282 55.2591 84.5604 56.0928C83.6086 57.2811 83.0475 58.841 82.3792 60.1984C81.56 61.8618 80.7409 63.525 79.9218 65.1885" fill="#E6E9ED"/>
<g id="Group_2">
<path id="Vector_8" d="M88.5727 59.268C88.6438 58.8994 88.682 58.5204 88.682 58.1346V57.478V54.7837C88.682 54.2502 88.1601 53.873 87.6531 54.0398L87.3956 54.1247C85.8491 54.6341 84.5726 55.744 83.8533 57.2042C77.8147 59.1763 72.3939 60.2682 67.5603 60.7564C73.2463 61.3716 80.2151 61.1942 88.5727 59.268Z" fill="#CFD2DC"/>
<path id="Vector_9" d="M13.4599 62.0107L17.7783 53.7008C19.1999 53.4649 20.9928 53.213 23.0825 53.0285C19.5608 52.7038 16.0124 52.6757 12.4842 52.9105C11.0547 53.0058 9.62789 53.144 8.20705 53.3268C7.01736 53.4799 5.91627 53.4897 5.2091 54.5783C3.71039 56.8858 2.6165 59.5672 1.34666 62.0105C1.3674 64.8116 3.19394 67.3557 5.87461 68.2116C7.25132 68.651 8.78132 68.5188 10.2092 68.5188C13.4631 68.5188 16.717 68.5188 19.971 68.5188C16.3751 68.5192 13.4599 65.6053 13.4599 62.0107Z" fill="#CFD2DC"/>
</g>
<path id="Vector_10" d="M15.3156 62.0107H1.34666C1.34666 65.6051 4.26181 68.519 7.85777 68.519H21.8268C21.8268 64.9247 18.9116 62.0107 15.3156 62.0107Z" fill="#333F61"/>
<path id="Vector_11" d="M13.4599 62.0107H1.34666C1.34666 65.6051 4.26181 68.519 7.85777 68.519H19.971C16.3751 68.5192 13.4599 65.6053 13.4599 62.0107Z" fill="#253551"/>
<path id="Vector_12" d="M46.362 64.7691L42.615 68.454C42.8632 68.4972 43.1146 68.519 43.3665 68.519H65.2245L50.4979 63.7875C49.0438 63.3205 47.4507 63.6986 46.362 64.7691Z" fill="#333F61"/>
<path id="Vector_13" d="M89.3984 53.3175C89.3417 50.2415 87.8313 47.3464 85.3273 45.545C84.7367 45.1199 83.9128 45.2542 83.4878 45.845C83.0628 46.4358 83.1972 47.2594 83.7878 47.6846C85.5072 48.9217 86.5856 50.8639 86.7448 52.9582C85.163 53.5413 83.8147 54.6649 82.9525 56.1087C72.5431 59.4429 62.7827 60.4917 53.8971 59.2353L46.3638 57.6029C46.1726 57.55 45.9808 57.4995 45.7901 57.4452C45.2819 57.3005 44.8087 57.1602 44.3606 57.0226L37.5505 54.7206C36.9251 54.5186 36.2533 54.3112 35.5108 54.0962C35.4461 54.0774 35.3805 54.0596 35.3156 54.041L27.8926 52.3298C26.6078 52.1118 25.314 51.9311 24.0365 51.7959C23.7413 51.7648 23.4427 51.7377 23.1445 51.7107V51.0691C23.1445 47.3075 20.0833 44.2474 16.3205 44.2474H7.89008V44.0558C7.89008 41.8207 8.18767 39.5935 8.77478 37.4365L10.2612 31.9759C10.3343 31.7073 10.541 31.6229 10.6578 31.5964C10.7748 31.57 10.9979 31.5568 11.18 31.7681L12.2748 33.0369C12.7504 33.5882 13.5824 33.649 14.1336 33.1737C14.6847 32.698 14.7457 31.8659 14.2702 31.3148L13.1755 30.046C12.4082 29.1571 11.2208 28.766 10.0747 29.0261C8.92947 29.2861 8.02666 30.1511 7.71816 31.284L6.23175 36.7447C5.58312 39.1274 5.25441 41.5873 5.25441 44.0563V52.6639C4.75519 52.9626 4.33894 53.3957 4.06437 53.9239L0.188044 61.3823C0.187868 61.3827 0.187692 61.383 0.187516 61.3834L0.177321 61.4031C0.173805 61.4098 0.17152 61.4171 0.168005 61.4238C0.150427 61.459 0.13443 61.4948 0.120016 61.5316C0.115094 61.5441 0.1107 61.5567 0.10613 61.5695C0.0940007 61.6038 0.0832781 61.6386 0.0739617 61.674C0.0702703 61.6875 0.0665789 61.7009 0.0634148 61.7146C0.0551531 61.7508 0.0486492 61.7875 0.0433757 61.8246C0.0416179 61.8371 0.039157 61.8494 0.0377507 61.862C-0.44846 66.1613 3.83621 69.8372 7.85791 69.8372H27.7368C28.3965 69.8372 29.0392 69.5672 29.4999 69.0963C29.8961 68.6913 30.1306 68.1761 30.1728 67.6252L32.1829 67.9752C32.9008 68.0996 33.5824 67.6199 33.7074 66.9029C33.8324 66.1857 33.3523 65.5034 32.6352 65.3785L30.4497 64.998C29.7251 64.8577 28.9858 65.0481 28.4187 65.522C27.91 65.947 27.6017 66.5491 27.5507 67.2014H23.0313C22.4024 63.5116 19.1831 60.6929 15.3156 60.6929H3.51717L6.40332 55.1393C6.4608 55.0287 6.55466 54.9436 6.66558 54.895C6.78283 54.8867 6.8955 54.8635 7.00203 54.8266C10.9669 54.2354 14.9959 53.9902 18.9815 54.1013C20.5936 54.1463 22.2013 54.2526 23.7598 54.4172C25.1862 54.568 26.6356 54.7754 28.0571 55.0319C30.3482 55.4633 32.6093 56.0001 34.7778 56.628C38.2457 57.6319 41.5952 58.9922 45.0687 59.9805C46.9471 60.5147 48.8501 60.9826 50.7382 61.3739C50.7419 61.3746 50.7455 61.3755 50.7492 61.3764C50.7517 61.3769 50.754 61.3774 50.7564 61.3779C60.0964 63.2157 70.3659 62.5349 81.322 59.3614L78.9941 64.0881L69.4879 66.9057C68.8269 67.1017 68.1424 67.2009 67.4536 67.2009H65.431L50.9009 62.5323C48.9737 61.9132 46.8805 62.4101 45.4378 63.8292L42.1737 67.0395L38.1199 66.3336C37.4034 66.2081 36.7203 66.6886 36.5953 67.4058C36.4703 68.123 36.9504 68.8054 37.6676 68.9302L42.3889 69.7523C42.7109 69.8084 43.0398 69.8367 43.3662 69.8367H65.2201C65.2231 69.8372 65.2259 69.8372 65.2289 69.8367H67.4536C68.3963 69.8367 69.3328 69.7008 70.2369 69.4329L80.2837 66.455C80.2919 66.4527 80.3002 66.4503 80.3083 66.4478L84.7812 65.1221C87.854 64.2117 90 61.3384 90 58.1344V54.7835C89.9998 54.2321 89.7781 53.7067 89.3984 53.3175ZM20.3386 67.2012H7.85773C5.4497 67.2012 3.41978 65.5545 2.83478 63.3286H15.3158C17.7236 63.3288 19.7536 64.9755 20.3386 67.2012ZM7.89008 52.0399V46.8834H16.3209C18.6303 46.8834 20.5089 48.7612 20.5089 51.0691V51.5245C16.2991 51.3143 12.0691 51.4943 7.89008 52.0399ZM50.0948 65.0425L56.8142 67.2014H45.7686L47.2862 65.709C48.0278 64.9795 49.1039 64.7241 50.0948 65.0425ZM87.3639 58.1346C87.3639 60.1796 85.9939 62.0139 84.0322 62.5954L82.4345 63.069L85.0357 57.7866C85.5244 56.7939 86.3583 55.9976 87.3639 55.5483V58.1346Z" fill="black"/>
<path id="Vector_14" d="M17.2542 36.0909C22.481 37.9238 28.302 36.4947 32.0839 32.4503C32.9054 31.5721 34.2446 31.3865 35.2738 32.0049L33.8692 33.6767C33.4009 34.234 33.4731 35.0652 34.0305 35.5337C34.5753 35.9914 35.4317 35.9144 35.8873 35.3725L37.5521 33.3911L40.1347 34.9633C40.237 35.0255 40.3404 35.0862 40.4427 35.1479L39.5466 36.2145C39.0783 36.7719 39.1505 37.603 39.7079 38.0714C40.2527 38.5292 41.1091 38.4522 41.5647 37.9103L42.76 36.4877C43.7063 37.012 44.6643 37.5162 45.6332 37.9994L45.039 38.7065C44.5707 39.2638 44.643 40.095 45.2004 40.5635C45.7451 41.0212 46.6015 40.9442 47.0572 40.4023L48.0927 39.1697C53.0627 41.4289 58.2826 43.1556 63.62 44.3031C63.6991 44.3272 63.7791 44.3449 63.8594 44.3537C66.5735 44.928 69.3171 45.3537 72.0728 45.6232L78.7008 46.2713C78.7444 46.2755 78.7876 46.2776 78.8305 46.2776C79.5006 46.2776 80.0742 45.7687 80.1408 45.0878C80.2114 44.3632 79.6818 43.7188 78.9572 43.6479L72.3292 42.9998C69.6816 42.7409 67.0456 42.3324 64.4375 41.7818C60.2177 39.5457 56.1101 37.0201 52.21 34.2693L52.3264 34.1308C52.7947 33.5736 52.7224 32.7423 52.165 32.2738C51.608 31.8055 50.7765 31.8778 50.3082 32.435L50.0669 32.7222C49.2173 32.0922 48.375 31.4506 47.5422 30.796L47.691 30.6188C48.1593 30.0616 48.0871 29.2304 47.5297 28.7619C46.9724 28.2936 46.1413 28.366 45.6729 28.9231L45.4888 29.1423C44.6291 28.4335 43.7787 27.7128 42.94 26.9788L43.107 26.78C43.5753 26.2227 43.503 25.3915 42.9456 24.923C42.3886 24.4547 41.5571 24.5272 41.0889 25.0842L40.9758 25.2187C39.5067 23.8715 38.073 22.487 36.6803 21.0672C36.6527 21.0389 36.6238 21.0121 36.5938 20.9866C35.1895 19.7913 33.0998 19.9106 31.8371 21.2587C31.0368 22.1124 30.2815 23.2758 29.5915 24.7159C28.0236 27.9888 27.9777 30.9736 28.0765 32.3978C25.1701 34.2948 21.4975 34.7857 18.1269 33.604C17.4396 33.3631 16.688 33.7249 16.4471 34.4117C16.2056 35.0978 16.5672 35.8501 17.2542 36.0909ZM54.3036 38.87C52.8012 38.3193 51.3172 37.7192 49.8547 37.072L50.5081 36.2943C51.753 37.1764 53.0191 38.0351 54.3036 38.87ZM48.3678 34.7437L47.3794 35.9204C46.4047 35.4447 45.4409 34.9476 44.489 34.4293L45.8455 32.8147C46.678 33.4697 47.5191 34.1127 48.3678 34.7437ZM43.7931 31.1601L42.1601 33.1037C41.9412 32.9738 41.7227 32.8437 41.5055 32.7117L39.2674 31.3492L41.2437 28.9969C42.0829 29.7305 42.9333 30.4512 43.7931 31.1601ZM31.9679 25.8543C32.5415 24.6574 33.1443 23.7175 33.7598 23.0604C34.049 22.7521 34.5194 22.7141 34.8495 22.9652C36.2853 24.4268 37.7631 25.8524 39.278 27.2386L36.9893 29.9625L36.6572 29.7603C34.7989 28.6292 32.4376 28.8002 30.7598 30.1049C30.8906 28.9081 31.2189 27.418 31.9679 25.8543Z" fill="black"/>
</g>
<defs>
<clipPath id="clip0_48_7282">
<rect width="90" height="90" fill="white"/>
</clipPath>
</defs>
</svg>
