<svg width="90" height="90" viewBox="0 0 90 90" fill="none" xmlns="http://www.w3.org/2000/svg">
<g id="watch_424502" clip-path="url(#clip0_48_7150)">
<path id="Vector" d="M52.5644 69.9024H31.7035C29.5209 69.9024 27.4489 69.4234 25.5825 68.5698V68.7034V85.4708C25.5825 87.1876 26.9741 88.5789 28.6908 88.5789H55.5773C57.294 88.5789 58.6856 87.1875 58.6856 85.4708V68.7034V68.5696C56.8192 69.4226 54.7471 69.9024 52.5644 69.9024Z" fill="#945C2B"/>
<path id="Vector_2" d="M30.1551 86.3061V70.5837C28.7489 70.3794 27.4061 69.9769 26.1557 69.4049V69.5385V86.3059C26.1557 88.0228 27.5476 89.4141 29.2642 89.4141H33.2634C31.5468 89.4143 30.1551 88.0228 30.1551 86.3061Z" fill="#77411D"/>
<path id="Vector_3" d="M52.5644 69.9024H31.7035C23.5545 69.9024 16.9246 63.2725 16.9246 55.1236V34.8766C16.9246 26.7272 23.5545 20.0974 31.7035 20.0974H52.5644C60.7136 20.0974 67.3434 26.7272 67.3434 34.8766V55.1236C67.3434 63.2725 60.7136 69.9024 52.5644 69.9024ZM36.6639 63.7439H53.3109C57.6439 63.7439 61.1694 60.2188 61.1694 55.8854V34.1149C61.1694 29.7814 57.6443 26.2561 53.3109 26.2561H30.8802C26.5472 26.2561 23.0217 29.7812 23.0217 34.1149V55.8854C23.0217 60.2184 26.5468 63.7439 30.8802 63.7439H31.927" fill="#F7941C"/>
<path id="Vector_4" d="M36.6639 63.7439H53.3109C57.644 63.7439 61.1694 60.2188 61.1694 55.8854V34.1149C61.1694 29.7814 57.6443 26.2561 53.3109 26.2561H30.8802C26.5472 26.2561 23.0217 29.7812 23.0217 34.1149V55.8854C23.0217 60.2184 26.5468 63.7439 30.8802 63.7439H31.927" fill="#B1DBEB"/>
<path id="Vector_5" d="M28.8093 55.8998V34.1293C28.8093 29.7958 32.3344 26.2705 36.6678 26.2705H31.4063C27.0733 26.2705 23.5478 29.7956 23.5478 34.1293V55.8998C23.5478 60.2329 27.0729 63.7583 31.4063 63.7583H32.4531H36.6676C32.3344 63.7583 28.8093 60.2329 28.8093 55.8998Z" fill="#86C0CE"/>
<path id="Vector_6" d="M53.1266 26.3336H37.1429C38.2293 41.1664 45.5001 54.2795 56.3868 63.1102C59.0966 61.869 60.9849 59.1332 60.9849 55.963V34.1924C60.9849 29.8589 57.4596 26.3336 53.1266 26.3336Z" fill="#BCE9F7"/>
<path id="Vector_7" d="M52.3797 20.1752H37.0524C37.0199 20.9323 36.9998 21.6929 36.9998 22.4579C36.9998 23.7616 37.0491 25.0538 37.1429 26.3337H53.1265C57.4596 26.3337 60.985 29.8588 60.985 34.1925V55.963C60.985 59.1332 59.0968 61.8691 56.3869 63.1103C58.0233 64.4374 59.7408 65.6674 61.5317 66.7925C64.9556 64.0832 67.1586 59.8961 67.1586 55.2012V34.9542C67.1586 26.8049 60.5289 20.1752 52.3797 20.1752Z" fill="#F9C33D"/>
<path id="Vector_8" d="M58.6856 9.82987V4.52936C58.6856 2.81251 57.2938 1.42102 55.5771 1.42102H28.6905C26.9736 1.42102 25.5823 2.81251 25.5823 4.52936V21.2966V21.4304C27.449 20.577 29.5209 20.0974 31.7037 20.0974H52.5646C54.7474 20.0974 56.8194 20.5768 58.6862 21.4302V21.2966V14.631" fill="#945C2B"/>
<path id="Vector_9" d="M49.9964 1.42102H34.2701V20.0974H49.9964V1.42102Z" fill="#AA744B"/>
<path id="Vector_10" d="M30.1549 5.36481C30.1549 3.64778 31.5464 2.25647 33.2631 2.25647H29.2639C27.547 2.25647 26.1557 3.64795 26.1557 5.36481V22.1321V22.2658C27.4061 21.6942 28.7489 21.2913 30.1549 21.0869V5.36481Z" fill="#77411D"/>
<path id="Vector_11" d="M55.6954 1.59009H41.6739C39.1532 7.34903 37.6392 13.648 37.3549 20.2665H52.6825C54.8652 20.2665 56.9371 20.7458 58.8039 21.5993V21.4657V14.7997V9.99876V4.69843C58.8041 2.9814 57.4123 1.59009 55.6954 1.59009Z" fill="#A56637"/>
<path id="Vector_12" d="M41.4844 2.25647C38.9637 8.01542 37.4497 14.3144 37.1654 20.9329H49.9261V2.25647H41.4844Z" fill="#C18257"/>
<path id="Vector_13" d="M70.0868 37.3427H67.5967C67.5111 37.3427 67.4269 37.3483 67.3432 37.3551V52.6448C67.4269 52.6516 67.5111 52.6572 67.5967 52.6572H70.087C71.7372 52.6572 73.0754 51.3195 73.0754 49.6691V40.3308C73.0754 38.6803 71.7372 37.3427 70.0868 37.3427Z" fill="#898790"/>
<path id="Vector_14" d="M42.1332 47.3636C43.4385 47.3636 44.4967 46.3054 44.4967 45C44.4967 43.6947 43.4385 42.6365 42.1332 42.6365C40.8278 42.6365 39.7696 43.6947 39.7696 45C39.7696 46.3054 40.8278 47.3636 42.1332 47.3636Z" fill="#F5F5F5"/>
<path id="Vector_15" d="M49.9973 82.1456V88.579H34.271V69.9026H49.9973V77.4097" fill="#AA744B"/>
<path id="Vector_16" d="M70.0868 45.1964H67.5967C67.5111 45.1964 67.4269 45.1907 67.3432 45.1839V52.6054C67.4269 52.6122 67.5111 52.6178 67.5967 52.6178H70.087C71.7372 52.6178 73.0754 51.28 73.0754 49.6297V42.2083C73.0754 43.8587 71.7372 45.1964 70.0868 45.1964Z" fill="#727177"/>
<g id="Group">
<path id="Vector_17" d="M42.1341 33.2302C41.349 33.2302 40.713 33.8662 40.713 34.6512V41.4946C39.3289 42.058 38.3495 43.4157 38.3495 44.9998C38.3495 47.0865 40.0472 48.7842 42.1341 48.7842C43.7258 48.7842 45.0888 47.7949 45.6467 46.4003H51.0367C51.8217 46.4003 52.4577 45.7643 52.4577 44.9793C52.4577 44.1942 51.8217 43.5583 51.0367 43.5583H45.6316C45.2445 42.6227 44.4932 41.8767 43.5551 41.4949V34.6514C43.5551 33.8664 42.9189 33.2302 42.1341 33.2302ZM42.1341 45.9422C41.6144 45.9422 41.1917 45.5196 41.1917 45C41.1917 44.4804 41.6144 44.0576 42.1341 44.0576C42.6537 44.0576 43.0764 44.4804 43.0764 45C43.0764 45.5198 42.6535 45.9422 42.1341 45.9422Z" fill="#231F20"/>
<path id="Vector_18" d="M53.3109 24.8351H30.8802C25.7634 24.8351 21.6007 28.9979 21.6007 34.1149V55.8854C21.6007 61.0023 25.7634 65.1649 30.8802 65.1649H31.927C32.712 65.1649 33.348 64.5289 33.348 63.7439C33.348 62.9589 32.712 62.3229 31.927 62.3229H30.8802C27.3308 62.3229 24.4429 59.4352 24.4429 55.8856V46.3729C24.5334 46.391 24.6271 46.4006 24.7229 46.4006H24.7231L27.2965 46.4003C28.0816 46.4001 28.7176 45.7638 28.7174 44.9791C28.7172 44.1942 28.0811 43.5582 27.2964 43.5582L24.7228 43.5586C24.627 43.5586 24.5333 43.5684 24.4429 43.5864V34.1148C24.4429 30.5652 27.3306 27.6769 30.8802 27.6769H40.7129V30.1412C40.7129 30.9263 41.3489 31.5622 42.1339 31.5622C42.9189 31.5622 43.5549 30.9263 43.5549 30.1412V27.6769H53.3108C56.8601 27.6769 59.7481 30.5648 59.7481 34.1148V43.5744C59.6814 43.5648 59.6139 43.5581 59.5445 43.5581H59.5443L56.9712 43.5584C56.1862 43.5586 55.5502 44.1949 55.5504 44.9796C55.5506 45.7645 56.1867 46.4005 56.9714 46.4005H56.9716L59.5447 46.4001C59.6138 46.4001 59.6814 46.3934 59.7481 46.3838V55.8851C59.7481 59.4345 56.8603 62.3224 53.3108 62.3224H43.5549V59.8166C43.5549 59.0316 42.9189 58.3956 42.1339 58.3956C41.3489 58.3956 40.7129 59.0316 40.7129 59.8166V62.3224H36.6638C35.8787 62.3224 35.2427 62.9583 35.2427 63.7434C35.2427 64.5284 35.8787 65.1644 36.6638 65.1644H53.3108C58.4276 65.1644 62.5903 61.0017 62.5903 55.8849V34.1144C62.5904 28.9979 58.4276 24.8351 53.3109 24.8351Z" fill="#231F20"/>
<path id="Vector_19" d="M70.0868 35.9216H68.7642V34.8766C68.7642 28.6661 65.2496 23.2638 60.1068 20.5457V14.631C60.1068 13.8459 59.4705 13.21 58.6858 13.21C57.9007 13.21 57.2648 13.8459 57.2648 14.631V19.3739C57.0691 19.3141 56.8722 19.2586 56.6747 19.2064C56.5903 19.1842 56.5049 19.1647 56.42 19.1438C56.2637 19.1051 56.1067 19.0686 55.9494 19.0348C55.8694 19.0178 55.7893 19.0011 55.7089 18.9854C55.5163 18.9471 55.3227 18.9127 55.1287 18.8815C55.0853 18.8745 55.0425 18.8664 54.9991 18.8597C54.7564 18.823 54.5127 18.7922 54.2679 18.7666C54.2143 18.761 54.1601 18.7567 54.1063 18.7518C53.9093 18.733 53.7117 18.7181 53.5134 18.7065C53.4463 18.7024 53.3795 18.6986 53.3122 18.6954C53.0638 18.684 52.8145 18.6764 52.5644 18.6764H51.4185V2.84203H55.5773C56.5079 2.84203 57.2648 3.59895 57.2648 4.52936V9.82986C57.2648 10.6149 57.9007 11.2509 58.6858 11.2509C59.4706 11.2509 60.1068 10.6149 60.1068 9.82986V4.52936C60.107 2.03186 58.0748 0 55.5771 0H49.9973H34.271H28.6905C26.193 0 24.1613 2.03186 24.1613 4.52936V20.5458C19.0183 23.2636 15.5037 28.6661 15.5037 34.8768V55.1238C15.5037 61.3343 19.0185 66.7366 24.1615 69.4543V85.471C24.1615 87.9685 26.1933 90.0002 28.6908 90.0002H34.271H49.9973H55.5773C58.075 90.0002 60.1066 87.9683 60.1066 85.471V69.4542C65.2495 66.7364 68.764 61.3341 68.764 55.1238V54.0786H70.0866C72.518 54.0786 74.4963 52.1007 74.4963 49.6693V40.3309C74.4964 37.8995 72.5182 35.9216 70.0868 35.9216ZM48.5763 2.84203V18.6764H35.692V2.84203H48.5763ZM27.0033 19.3739V4.52936C27.0033 3.59912 27.7601 2.84203 28.6905 2.84203H32.85V18.6764H31.7035C31.4534 18.6764 31.2043 18.6841 30.9559 18.6954C30.8884 18.6984 30.8215 18.7026 30.7542 18.7066C30.5564 18.7181 30.3592 18.7332 30.1626 18.7518C30.1083 18.7569 30.0537 18.7611 29.9995 18.7668C29.7554 18.7924 29.5121 18.823 29.2699 18.8597C29.225 18.8666 29.1806 18.875 29.1357 18.8822C28.9436 18.9132 28.752 18.9473 28.5613 18.9851C28.4794 19.0012 28.398 19.0183 28.3164 19.0355C28.1612 19.0689 28.0067 19.105 27.8525 19.1429C27.7655 19.1642 27.6782 19.1842 27.5918 19.2067C27.3946 19.2586 27.1986 19.3141 27.0033 19.3739ZM27.0033 85.4708V70.6263C27.2006 70.6866 27.3988 70.7425 27.5976 70.7947C27.6766 70.8152 27.7564 70.8335 27.8358 70.853C27.9979 70.8929 28.1601 70.9309 28.3231 70.9657C28.4003 70.982 28.4773 70.998 28.5548 71.0135C28.7508 71.0524 28.9473 71.0875 29.145 71.1193C29.1858 71.1258 29.2261 71.1336 29.2669 71.1397C29.5103 71.1766 29.755 71.2076 30.0006 71.2331C30.0535 71.2385 30.1069 71.2427 30.16 71.2477C30.3576 71.2665 30.5559 71.2816 30.7545 71.2932C30.8213 71.2972 30.8883 71.3011 30.9554 71.3043C31.204 71.3157 31.4531 71.3232 31.7032 71.3232H32.8496V87.158H28.6905C27.7606 87.158 27.0033 86.4011 27.0033 85.4708ZM57.2648 70.6259V85.4708C57.2648 86.4011 56.5079 87.158 55.5774 87.158H51.4185V82.1456C51.4185 81.3605 50.7825 80.7245 49.9974 80.7245C49.2124 80.7245 48.5764 81.3605 48.5764 82.1456V87.158H35.6922V71.3236H48.5764V77.4097C48.5764 78.1947 49.2124 78.8307 49.9974 78.8307C50.7825 78.8307 51.4185 78.1947 51.4185 77.4097V71.3234H52.5644C52.8147 71.3234 53.0636 71.3157 53.3122 71.3044C53.3795 71.3014 53.4463 71.2972 53.5134 71.2934C53.7115 71.2818 53.9093 71.2668 54.1063 71.248C54.1601 71.2429 54.2143 71.2387 54.2679 71.2332C54.5127 71.2076 54.7565 71.1768 54.9991 71.1401C55.0425 71.1334 55.0856 71.1253 55.1287 71.1183C55.3227 71.0872 55.5159 71.0527 55.7084 71.0144C55.7891 70.9984 55.8694 70.9819 55.9498 70.9648C56.1069 70.9311 56.2632 70.8945 56.4191 70.8562C56.5043 70.8353 56.5901 70.8156 56.6749 70.7934C56.8724 70.7414 57.0691 70.6857 57.2648 70.6259ZM65.9222 55.1236C65.9222 60.5136 62.7115 65.1646 58.1038 67.2738C58.101 67.2752 58.098 67.2759 58.095 67.2771C57.8779 67.3764 57.659 67.4694 57.4386 67.5564C57.4358 67.5575 57.433 67.5587 57.43 67.5598C57.2238 67.641 57.0159 67.7159 56.8069 67.7865C56.7821 67.7948 56.7575 67.8036 56.7325 67.8117C56.5486 67.8725 56.3635 67.9278 56.1779 67.9804C56.1303 67.9939 56.0832 68.008 56.0352 68.021C55.8728 68.065 55.7091 68.104 55.5453 68.1418C55.4773 68.1572 55.4098 68.1743 55.3412 68.1889C55.1955 68.22 55.0487 68.2462 54.9017 68.2722C54.8177 68.2871 54.7344 68.304 54.6499 68.3174C54.512 68.3392 54.3732 68.3557 54.2347 68.3731C54.1427 68.3847 54.0515 68.3988 53.959 68.4081C53.8117 68.4234 53.6637 68.4331 53.5157 68.4436C53.432 68.4494 53.3492 68.4584 53.265 68.4628C53.0323 68.4749 52.7987 68.4814 52.564 68.4814H31.7035C31.4691 68.4814 31.2356 68.4749 31.0029 68.4628C30.9153 68.4582 30.8289 68.449 30.7418 68.4429C30.5977 68.4327 30.4532 68.4234 30.3098 68.4084C30.2124 68.3982 30.1166 68.3837 30.0197 68.3715C29.8863 68.3547 29.7527 68.3388 29.6202 68.3179C29.53 68.3037 29.4411 68.2859 29.3516 68.2697C29.211 68.2446 29.0703 68.2196 28.9308 68.1899C28.8561 68.1743 28.7826 68.1557 28.7084 68.1386C28.5513 68.1022 28.3945 68.0651 28.2385 68.0229C28.1844 68.0084 28.131 67.9922 28.0772 67.9769C27.8982 67.9261 27.72 67.8728 27.543 67.8143C27.5119 67.8041 27.4813 67.7932 27.4502 67.7828C27.2475 67.7141 27.0457 67.6415 26.8453 67.5626C26.8376 67.5596 26.8298 67.5564 26.8219 67.5533C26.604 67.4671 26.3879 67.3754 26.1733 67.2773C26.171 67.2762 26.1684 67.2755 26.1661 67.2745C21.5571 65.1658 18.3456 60.5141 18.3456 55.1234V34.8766C18.3456 29.4885 21.5539 24.8386 26.1589 22.7285C26.1634 22.7264 26.1684 22.7252 26.1729 22.7231C26.5976 22.5288 27.0292 22.3588 27.4665 22.2115C27.4881 22.2043 27.5098 22.1968 27.5316 22.1896C27.7186 22.1277 27.9068 22.0713 28.0958 22.0178C28.1405 22.0054 28.1851 21.9918 28.2299 21.9797C28.395 21.935 28.5613 21.8953 28.7279 21.8572C28.7937 21.8422 28.8589 21.8255 28.925 21.8115C29.073 21.7798 29.222 21.7533 29.3711 21.7267C29.4532 21.7123 29.5344 21.6956 29.6168 21.6828C29.7562 21.6608 29.8969 21.6439 30.0371 21.6264C30.1275 21.6149 30.2173 21.6014 30.3082 21.5917C30.4566 21.5763 30.606 21.5666 30.7554 21.5561C30.8378 21.5503 30.9197 21.5415 31.0025 21.5372C31.2353 21.5251 31.4691 21.5186 31.7035 21.5186H34.2712H49.9974H52.5644C52.7989 21.5186 53.0325 21.5251 53.265 21.5372C53.351 21.5418 53.4357 21.5508 53.5212 21.5568C53.6671 21.5671 53.8133 21.5764 53.9585 21.5916C54.0534 21.6014 54.1473 21.6156 54.2415 21.6276C54.3776 21.6448 54.5138 21.661 54.6488 21.6824C54.7356 21.6962 54.8212 21.7136 54.9075 21.7288C55.0519 21.7547 55.1964 21.7802 55.3396 21.8108C55.4105 21.8257 55.4804 21.8435 55.5509 21.8596C55.7119 21.8967 55.8729 21.935 56.0327 21.9783C56.0832 21.992 56.1329 22.0069 56.1832 22.0212C56.3662 22.073 56.5485 22.1275 56.7297 22.1875C56.7569 22.1964 56.784 22.2061 56.8114 22.2151C57.0182 22.285 57.2235 22.359 57.4275 22.4394C57.4323 22.4413 57.437 22.4432 57.4416 22.4448C57.661 22.5316 57.879 22.6243 58.0952 22.7229C58.0978 22.7239 58.1006 22.7248 58.1032 22.7261C62.7112 24.8351 65.9222 29.4864 65.9222 34.8768V37.3553V52.6449V55.1234V55.1236ZM71.6544 49.6693C71.6544 50.5334 70.9513 51.2364 70.087 51.2364H68.7644V38.7636H70.087C70.9513 38.7636 71.6544 39.4666 71.6544 40.3307V49.6693Z" fill="#231F20"/>
</g>
</g>
<defs>
<clipPath id="clip0_48_7150">
<rect width="90" height="90" fill="white"/>
</clipPath>
</defs>
</svg>
